<svg width="130" height="130" viewBox="0 0 130 130" fill="none" xmlns="http://www.w3.org/2000/svg">
<path d="M130 0H0V130H130V0Z" fill="white"/>
<path fill-rule="evenodd" clip-rule="evenodd" d="M85.8203 85.8203L0 122.637V98.0586L85.8203 85.8203Z" fill="#C9E5AC"/>
<path fill-rule="evenodd" clip-rule="evenodd" d="M0.0507812 122.637V130H30.1641H30.2148L85.8203 85.8203L0.0507812 122.637Z" fill="#DBFEB7"/>
<path fill-rule="evenodd" clip-rule="evenodd" d="M85.8203 85.8203L53.4219 130H30.3164C30.2656 130 30.2148 130 30.1641 130L85.8203 85.8203Z" fill="white"/>
<path fill-rule="evenodd" clip-rule="evenodd" d="M85.8203 85.8203L68.707 130H53.4219L85.8203 85.8203Z" fill="#E7E7E7"/>
<path fill-rule="evenodd" clip-rule="evenodd" d="M80.9453 130H68.707L85.8203 85.8203L80.9453 130Z" fill="#DBFEB7"/>
<path fill-rule="evenodd" clip-rule="evenodd" d="M92.3711 130H80.9453L81.0469 129.492L85.8203 85.8203L92.3711 130Z" fill="#C9E5AC"/>
<path fill-rule="evenodd" clip-rule="evenodd" d="M104.457 129.594C102.883 129.848 101.309 129.949 99.6836 129.949H92.3711L85.8203 85.8203L104.457 129.594Z" fill="#DBFEB7"/>
<path fill-rule="evenodd" clip-rule="evenodd" d="M116.188 125.125C112.734 127.41 108.723 128.934 104.457 129.645L85.8203 85.8203L116.188 125.125Z" fill="#C9E5AC"/>
<path fill-rule="evenodd" clip-rule="evenodd" d="M125.125 116.137C122.789 119.691 119.742 122.738 116.187 125.074L85.8203 85.8203L125.125 116.137Z" fill="#DBFEB7"/>
<path fill-rule="evenodd" clip-rule="evenodd" d="M129.594 104.457C128.934 108.723 127.359 112.684 125.074 116.187L85.8203 85.8203L129.594 104.457Z" fill="#C9E5AC"/>
<path fill-rule="evenodd" clip-rule="evenodd" d="M129.949 92.3711L130 99.6836C130 101.309 129.848 102.934 129.645 104.457L85.8203 85.8203L129.949 92.3711Z" fill="#DBFEB7"/>
<path fill-rule="evenodd" clip-rule="evenodd" d="M0 98.0586V75.2578L85.8203 85.8203L0 98.0586Z" fill="#9AD6E3"/>
<path fill-rule="evenodd" clip-rule="evenodd" d="M130 80.9453V92.3711H129.949L85.8203 85.8203L130 80.9453Z" fill="#C9E5AC"/>
<path fill-rule="evenodd" clip-rule="evenodd" d="M130 68.7578V80.9453L85.8203 85.8203L130 68.7578Z" fill="#AEDEE8"/>
<path fill-rule="evenodd" clip-rule="evenodd" d="M130 53.4219V68.707L85.8203 85.8203L130 53.4219Z" fill="#9AD6E3"/>
<path fill-rule="evenodd" clip-rule="evenodd" d="M130 30.164C130 30.2148 130 30.2656 130 30.3164V53.3711L85.8203 85.8203L130 30.164Z" fill="#AEDEE8"/>
<path fill-rule="evenodd" clip-rule="evenodd" d="M122.637 0L85.8203 85.8203L130 30.1641V0H122.637Z" fill="#9AD6E3"/>
<path fill-rule="evenodd" clip-rule="evenodd" d="M98.0078 0L85.8203 85.8203L122.637 0H98.0078Z" fill="#AEDEE8"/>
<path fill-rule="evenodd" clip-rule="evenodd" d="M98.0078 0L85.8203 85.8203L75.207 0H98.0078Z" fill="#9AD6E3"/>
<path fill-rule="evenodd" clip-rule="evenodd" d="M85.8203 85.8203L50.7305 0H75.207L85.8203 85.8203Z" fill="#AEDEE8"/>
<path fill-rule="evenodd" clip-rule="evenodd" d="M50.7305 0H30.3164H20.2109L85.8203 85.8203L50.7305 0Z" fill="#9AD6E3"/>
<path fill-rule="evenodd" clip-rule="evenodd" d="M20.2109 0H0V20.2109L85.8203 85.8203L20.2109 0Z" fill="#AEDEE8"/>
<path fill-rule="evenodd" clip-rule="evenodd" d="M85.8203 85.8203L0.0507812 50.7812L0 20.2617L85.8203 85.8203Z" fill="#9AD6E3"/>
<path fill-rule="evenodd" clip-rule="evenodd" d="M85.8203 85.8203L0 75.2578V50.7812L85.8203 85.8203Z" fill="#AEDEE8"/>
<path d="M121.723 72.1093C121.723 72.1601 121.723 72.1601 121.723 72.1093C120.047 75.7148 118.27 79.2695 116.441 82.7226C115.121 85.2109 113.699 87.6484 112.277 90.0351C111.059 92.0156 109.84 93.8945 108.57 95.7226C107.402 97.3984 106.133 99.0742 104.863 100.648C103.594 102.223 102.223 103.746 100.852 105.219C100.445 105.625 100.09 106.031 99.6836 106.437C98.5156 107.555 97.3476 108.672 96.1797 109.687C94.25 111.363 92.3203 112.937 90.2891 114.461C87.6992 116.391 85.0078 118.168 82.2656 119.793C78.457 122.078 74.4961 124.059 70.4336 125.785C66.7266 127.41 62.918 128.781 59.0078 130H99.6328C101.258 130 102.883 129.848 104.406 129.644C108.672 128.984 112.633 127.41 116.137 125.125C119.691 122.789 122.738 119.742 125.074 116.187C127.359 112.734 128.883 108.723 129.594 104.457C129.848 102.883 129.949 101.309 129.949 99.6835V53.4726C127.309 59.6679 124.617 65.9648 121.723 72.1093Z" fill="#8749A9"/>
<path d="M126.293 81.4531C124.668 84.8046 122.992 88.0546 121.215 91.2031C119.691 93.8945 118.117 96.5351 116.492 99.0234C114.918 101.41 113.293 103.644 111.617 105.777C109.891 107.961 108.012 110.043 106.082 111.973C106.031 112.023 106.031 112.023 105.98 112.074C103.898 114.105 101.766 116.035 99.5312 117.812C96.9414 119.894 94.25 121.824 91.5078 123.602C88.1055 125.785 84.6016 127.715 80.9961 129.492C80.6406 129.644 80.2852 129.848 79.9297 130H99.6328C101.258 130 102.883 129.848 104.406 129.644C108.672 128.984 112.633 127.41 116.137 125.125C119.691 122.789 122.738 119.742 125.074 116.187C127.359 112.734 128.883 108.723 129.594 104.457C129.848 102.883 129.949 101.309 129.949 99.6835V73.5312C128.781 76.1718 127.562 78.8632 126.293 81.4531Z" fill="#965FB3"/>
<path d="M129.949 92.371C128.172 95.7734 126.242 99.1249 124.262 102.273C122.332 105.32 120.301 108.215 118.168 110.906C116.441 113.09 114.613 115.121 112.684 117C112.176 117.508 111.617 118.016 111.059 118.523C108.367 121.012 105.574 123.348 102.68 125.43C100.445 127.055 98.1602 128.578 95.8242 130H129.949V92.371C130 92.3203 129.949 92.3203 129.949 92.371Z" fill="#A576BE"/>
<path d="M104.609 43.2149C104.305 35.293 101.41 29.0469 95.9258 24.6289C95.5703 24.375 95.2148 24.0703 94.8594 23.8164C92.6758 22.2422 90.1367 20.9727 87.2422 20.0078C84.3476 19.043 81.0976 18.3321 77.543 17.9766C75.2578 17.7227 72.8203 17.6211 70.2305 17.6211C65.9648 17.6211 62.0039 17.9258 58.3477 18.586C52.5078 19.6016 47.5312 21.4805 43.4687 24.1719C42.3516 24.9336 41.3359 25.6953 40.3711 26.5586C35.8516 30.6719 33.5664 36.0547 33.5664 42.6055C33.5664 44.1289 33.6172 45.2461 33.668 46.0078H47.7344V44.3828C47.7344 42.0469 48.2422 39.9649 49.2578 38.0352C50.0703 36.461 51.1875 35.0899 52.6602 33.7696C54.9961 31.7383 58.5 30.418 63.0703 29.8086C64.8476 29.6055 66.7773 29.4532 68.9101 29.4532C72.9726 29.4532 76.4258 29.8594 79.2695 30.6211C80.6406 30.9766 81.8086 31.4336 82.875 31.9922C83.9414 32.5508 84.8555 33.1602 85.5664 33.8711C88.3086 36.4102 89.832 40.0156 90.1875 44.5352C90.2383 45.1446 90.2383 45.8047 90.2383 46.4649V57.0274H89.7812C87.3437 57.0274 85.0078 57.0781 82.7226 57.1289C79.8789 57.2305 77.1367 57.3321 74.4961 57.5352C71.1445 57.7891 67.9453 58.0938 64.9492 58.5C60.8867 59.0586 57.1289 59.7696 53.6758 60.5821C53.3711 60.6328 53.1172 60.7344 52.8125 60.7852C49.8164 61.5469 47.125 62.461 44.6367 63.4766C42.4023 64.3906 40.3711 65.5078 38.6445 66.8281C34.4297 69.9258 31.5859 74.0899 30.2148 79.2696C29.6055 81.7071 29.25 84.3477 29.25 87.1914C29.25 89.7305 29.4531 92.0664 29.9102 94.1992C30.4688 97.0938 31.4336 99.582 32.8047 101.715C34.1758 103.848 35.9023 105.574 38.0352 106.895C38.1367 106.945 38.1875 106.996 38.2891 107.047C42.8594 109.789 47.9375 111.516 53.4727 112.176C54.4883 112.328 55.5547 112.379 56.6211 112.43C60.7851 112.176 64.8476 111.363 68.707 110.043C72.2617 108.824 75.7148 107.148 79.0156 105.066C80.9961 103.797 82.9258 102.426 84.7539 100.902C85.9219 99.9883 87.0391 98.9727 88.1055 97.9063C88.8672 97.1953 89.6289 96.4336 90.3398 95.6719C90.9492 95.0625 91.5078 94.4024 92.0664 93.793C92.5742 93.2344 93.082 92.625 93.5898 92.0156C94.0976 91.4063 94.5547 90.7969 95.0625 90.1875C95.6211 89.4766 96.1289 88.7656 96.6367 88.0039C97.2969 87.0899 97.957 86.125 98.5664 85.1094C99.4805 83.6875 100.344 82.1641 101.207 80.6406C101.258 80.5899 101.258 80.5391 101.309 80.4883L101.359 80.4375L101.562 80.082C101.562 80.0313 101.613 79.9805 101.613 79.9805C102.68 77.9492 103.492 75.7149 104 73.4297V73.3789C104.406 71.6016 104.609 69.7735 104.609 67.8946V44.4844C104.66 44.0781 104.66 43.6211 104.609 43.2149ZM88.0039 86.4805C87.9531 86.582 87.9023 86.6836 87.8516 86.7852C87.8008 86.8867 87.75 86.9883 87.6992 87.0391C87.6484 87.1406 87.5976 87.1914 87.5469 87.293C87.4961 87.3945 87.4453 87.4961 87.3945 87.5977C87.3437 87.6992 87.2422 87.8516 87.1914 87.9531C87.0898 88.1055 86.9883 88.3086 86.8867 88.461C86.6836 88.7656 86.4805 89.0703 86.2773 89.375C85.7695 90.1367 85.2109 90.8477 84.6016 91.5078C84.043 92.168 83.4336 92.7774 82.7734 93.3867C81.7578 94.3516 80.6406 95.2149 79.4219 95.9766C78.4062 96.6367 77.2891 97.2461 76.1719 97.7539C73.8867 98.7695 71.5508 99.5313 69.1641 99.9883C67.1836 100.395 65.1523 100.547 63.1211 100.547C60.0234 100.547 57.2812 100.242 54.9453 99.6836C52.6602 99.125 50.7305 98.3125 49.207 97.2461C47.3789 95.9766 46.0586 94.1992 45.2969 92.0156C44.6875 90.3399 44.3828 88.4102 44.3828 86.1758C44.3828 84.3477 44.6875 82.6211 45.2461 81.0977C46.5156 77.6953 49.207 75.0547 53.2695 73.2774C53.4727 73.1758 53.6758 73.125 53.8789 73.0235C54.5391 72.7696 55.25 72.5156 55.9609 72.2617C58.6016 71.3985 61.6992 70.7383 65.3047 70.1797C67.793 69.8242 70.4844 69.5195 73.3789 69.2656C75.2578 69.1133 77.2383 69.0117 79.3203 68.9102C80.8945 68.8594 82.5703 68.8086 84.2969 68.7578C85.8203 68.707 87.3945 68.7071 89.0195 68.7071H90.2891V75.7656C90.2891 76.5781 90.2383 77.3399 90.1875 78.1016V78.1524C90.0351 79.9297 89.7305 81.6563 89.2734 83.2305C89.0703 83.8399 88.8672 84.5 88.6641 85.0586V85.1094C88.5625 85.3633 88.4609 85.668 88.3086 85.9219C88.1562 86.1758 88.0547 86.3281 88.0039 86.4805Z" fill="#691B93"/>
</svg>
