<?xml version="1.0" encoding="utf-8"?>
<!-- Generator: Adobe Illustrator 24.1.0, SVG Export Plug-In . SVG Version: 6.00 Build 0)  -->
<svg version="1.1" id="mark" xmlns="http://www.w3.org/2000/svg" xmlns:xlink="http://www.w3.org/1999/xlink" x="0px" y="0px"
	 viewBox="0 0 300 71" style="enable-background:new 0 0 300 71;" xml:space="preserve">
<style type="text/css">
	.st0{fill:#FFFFFF;}
</style>
<path id="t2" class="st0" d="M281.2,69.9v-43H271v-6.5h10.1V2.6h7.4v17.8H300v6.5h-11.4v43H281.2z"/>
<path id="i" class="st0" d="M263.2,2.3V12h-8V2.3H263.2z M255.5,20.3h7.4v49.6h-7.4V20.3z"/>
<path id="d" class="st0" d="M242.6,45.2V0.5h-7.4v27.9c-4-5.9-9.8-8.8-17.3-8.8c-7.5,0-13.5,2.5-18,7.4c-4.4,4.9-6.5,10.9-6.5,18.1
	s2.2,13.3,6.5,18.1c4,4.4,9.1,6.9,15.2,7.3C227.4,69.6,237.8,59.4,242.6,45.2z M200.8,45.1c0-5.4,1.6-9.8,4.7-13.3
	c3.3-3.7,7.6-5.6,12.9-5.6c5.4,0,9.6,1.8,12.7,5.6c3,3.5,4.5,7.9,4.5,13.3c0,5.4-1.5,9.8-4.5,13.3c-3.1,3.7-7.3,5.6-12.7,5.6
	c-5.3,0-9.6-1.8-12.9-5.6C202.4,54.9,200.8,50.5,200.8,45.1z"/>
<path id="n" class="st0" d="M177.9,25.1c-1.8-1.8-3.9-3.2-6.2-4.2c-2.1-0.8-4.5-1.3-7.2-1.4c-10.7,2.3-19.6,11.5-24.1,24.1v26.2h7.4
	V41.4c0-4.4,1.5-8.1,4.4-10.9c2.9-2.8,6.4-4.2,10.6-4.2c4.1,0,7.4,1.4,10,4.1c2.6,2.7,3.9,6.3,3.9,10.9v28.7h7.4V41.1
	C184.1,34.5,182,29.1,177.9,25.1z"/>
<path id="e" class="st0" d="M107.2,64c6.7,0,11.5-2.8,14.4-8.3h8.1c-1.7,4.5-4.4,8.1-8.2,10.9c-3.7,2.8-8.5,4.2-14.4,4.2
	c-7.5,0-13.6-2.5-18.2-7.4C84.3,58.5,82,52.4,82,45.1c0-7.3,2.2-13.4,6.5-18.1c4.6-5,10.6-7.4,18.1-7.4c7.4,0,13.4,2.5,18,7.4
	c4.4,4.8,6.5,10.8,6.5,18.1v3H89.7c0.5,4.6,2.3,8.3,5.5,11.3C98.3,62.4,102.3,64,107.2,64z M106.6,26.3c-4.6,0-8.4,1.4-11.5,4.3
	c-2.9,2.7-4.7,6.2-5.4,10.6h33.7c-0.7-4.4-2.4-7.9-5.4-10.6C115,27.7,111.2,26.3,106.6,26.3z"/>
<path id="t1" class="st0" d="M59.1,69.9v-43H49v-6.5h10.1V2.6h7.4v17.8H78v6.5H66.5v43H59.1z"/>
<path id="a" class="st0" d="M41.8,49.3V33c0-4.7-1.6-8.4-4.8-11c-3.2-2.6-8-3.9-14.2-3.9c-6.2,0-11.1,1.2-14.8,3.6
	C4.3,24.2,2.4,27.6,2.4,32c0,0.8,0,1.5,0.1,1.9h7.7V33c0-2.3,0.9-4.3,2.7-5.9c1.8-1.6,4.8-2.4,9-2.4c4.4,0,7.5,0.8,9.2,2.4
	c1.7,1.6,2.6,4,2.6,7V40h-0.2c-10.8,0-19.3,1.2-25,3.6C2.9,45.9,0,50.3,0,56.7c0,5.3,1.7,9,5,11c3,1.8,6.4,2.8,10.2,3
	C26.5,70,36.3,61.6,41.8,49.3z M8.4,56.2c0-3.8,2.2-6.4,6.4-7.7c4.2-1.3,10.5-2,18.7-2h0.2v3.9c0,2.9-0.7,5.5-2.2,7.5
	c-1.4,2.1-3.3,3.6-5.6,4.7c-2.3,1-4.7,1.6-7.2,1.6c-3.4,0-6-0.6-7.7-1.8C9.3,61.1,8.4,59,8.4,56.2z"/>
</svg>
