<svg width="39" height="48" viewBox="0 0 39 48" fill="none" xmlns="http://www.w3.org/2000/svg">
<path d="M38.8025 13.0453C38.6495 9.06639 37.1957 5.9292 34.4411 3.71021C34.2625 3.58268 34.084 3.42965 33.9055 3.30212C32.8087 2.51144 31.5334 1.8738 30.0796 1.3892C28.6258 0.904588 26.9934 0.547509 25.208 0.368969C24.0603 0.241441 22.836 0.19043 21.5352 0.19043C19.3927 0.19043 17.4033 0.343463 15.5669 0.675036C12.6337 1.18515 10.1342 2.12886 8.09373 3.48066C7.53261 3.86324 7.02249 4.24583 6.53789 4.67942C4.26788 6.74538 3.12013 9.44898 3.12013 12.7392C3.12013 13.5044 3.14564 14.0655 3.17114 14.4481H10.2362V13.6319C10.2362 12.4586 10.4913 11.4129 11.0014 10.4437C11.4095 9.65303 11.9706 8.96437 12.7103 8.30123C13.8835 7.281 15.6434 6.61785 17.9389 6.31179C18.8316 6.20976 19.8008 6.13325 20.8721 6.13325C22.9125 6.13325 24.6469 6.33729 26.0752 6.71988C26.7639 6.89842 27.3505 7.12797 27.8861 7.40853C28.4217 7.68909 28.8808 7.99516 29.2379 8.35224C30.6152 9.62752 31.3804 11.4384 31.5589 13.7084C31.5844 14.0145 31.5844 14.3461 31.5844 14.6776V19.9828H31.3549C30.1306 19.9828 28.9574 20.0083 27.8096 20.0338C26.3813 20.0848 25.004 20.1358 23.6777 20.2379C21.9943 20.3654 20.3875 20.5184 18.8826 20.7225C16.8422 21.003 14.9548 21.3601 13.2204 21.7682C13.0673 21.7937 12.9398 21.8447 12.7868 21.8702C11.2819 22.2528 9.93014 22.7119 8.68036 23.222C7.55811 23.6811 6.53789 24.2423 5.67069 24.9054C3.55373 26.4613 2.12541 28.5527 1.43676 31.1543C1.13069 32.3786 0.952148 33.7049 0.952148 35.1332C0.952148 36.4085 1.05417 37.5817 1.28372 38.653C1.56428 40.1068 2.04889 41.3566 2.73754 42.4278C3.4262 43.499 4.29339 44.3662 5.36463 45.0294C5.41564 45.0549 5.44114 45.0804 5.49216 45.1059C7.78766 46.4832 10.3382 47.3504 13.1183 47.6819C13.6285 47.7585 14.1641 47.784 14.6997 47.8095C16.7912 47.6819 18.8316 47.2739 20.77 46.6107C22.5554 45.9986 24.2898 45.1569 25.9477 44.1112C26.9424 43.4735 27.9116 42.7849 28.8298 42.0197C29.4165 41.5606 29.9776 41.0505 30.5132 40.5149C30.8958 40.1578 31.2784 39.7752 31.6354 39.3926C31.9415 39.0865 32.2221 38.755 32.5026 38.4489C32.7577 38.1683 33.0128 37.8623 33.2678 37.5562C33.5229 37.2501 33.7524 36.9441 34.0075 36.638C34.288 36.2809 34.5431 35.9238 34.7982 35.5413C35.1297 35.0822 35.4613 34.5976 35.7674 34.0874C36.2265 33.3733 36.6601 32.6081 37.0937 31.8429C37.1192 31.8174 37.1192 31.7919 37.1447 31.7664L37.1702 31.7409L37.2722 31.5624C37.2722 31.5369 37.2977 31.5114 37.2977 31.5114C37.8333 30.4911 38.2414 29.3689 38.4965 28.2211V28.1956C38.7005 27.3029 38.8025 26.3847 38.8025 25.441V13.6829C38.828 13.4789 38.828 13.2493 38.8025 13.0453ZM30.4622 34.7761C30.4367 34.8271 30.4112 34.8781 30.3857 34.9291C30.3602 34.9801 30.3347 35.0311 30.3092 35.0567C30.2836 35.1077 30.2581 35.1332 30.2326 35.1842C30.2071 35.2352 30.1816 35.2862 30.1561 35.3372C30.1306 35.3882 30.0796 35.4647 30.0541 35.5158C30.0031 35.5923 29.9521 35.6943 29.9011 35.7708C29.799 35.9238 29.697 36.0769 29.595 36.2299C29.3399 36.6125 29.0594 36.9696 28.7533 37.3012C28.4727 37.6327 28.1667 37.9388 27.8351 38.2449C27.325 38.7295 26.7639 39.1631 26.1517 39.5456C25.6416 39.8772 25.0805 40.1833 24.5194 40.4383C23.3716 40.9485 22.1984 41.331 20.9996 41.5606C20.0049 41.7646 18.9846 41.8412 17.9644 41.8412C16.4086 41.8412 15.0313 41.6881 13.858 41.4076C12.7103 41.127 11.741 40.7189 10.9759 40.1833C10.0577 39.5456 9.39452 38.653 9.01193 37.5562C8.70587 36.7145 8.55283 35.7453 8.55283 34.6231C8.55283 33.7049 8.70587 32.8377 8.98643 32.0725C9.62407 30.3636 10.9759 29.0373 13.0163 28.1446C13.1183 28.0936 13.2204 28.0681 13.3224 28.0171C13.654 27.8896 14.011 27.762 14.3681 27.6345C15.6944 27.2009 17.2503 26.8693 19.0612 26.5888C20.3109 26.4102 21.6627 26.2572 23.1166 26.1297C24.0603 26.0532 25.055 26.0021 26.1007 25.9511C26.8914 25.9256 27.7331 25.9001 28.6003 25.8746C29.3654 25.8491 30.1561 25.8491 30.9723 25.8491H31.6099V29.3944C31.6099 29.8025 31.5844 30.1851 31.5589 30.5677V30.5932C31.4824 31.4859 31.3294 32.3531 31.0998 33.1437C30.9978 33.4498 30.8958 33.7814 30.7938 34.0619V34.0874C30.7428 34.215 30.6917 34.368 30.6152 34.4955C30.5387 34.6231 30.4877 34.6996 30.4622 34.7761Z" fill="#691B93"/>
</svg>
