<svg width="29" height="137" viewBox="0 0 29 137" fill="none" xmlns="http://www.w3.org/2000/svg">
<path d="M3.4 10.84C3.4 12.12 3.76 13.2533 4.48 14.24C5.2 15.2267 6.13333 15.9467 7.28 16.4L7.28 19.64C5.30667 19.0267 3.72 17.9067 2.52 16.28C1.29333 14.5733 0.679999 12.5467 0.679999 10.2C0.68 7.26667 1.68 4.88 3.68 3.04C5.62667 1.25333 8.06667 0.359999 11 0.359999C13.9333 0.359999 16.3733 1.25333 18.32 3.04C20.32 4.88 21.32 7.26667 21.32 10.2C21.32 12.5467 20.7067 14.5733 19.48 16.28C18.28 17.9067 16.6933 19.0267 14.72 19.64L14.72 16.4C15.8667 15.9467 16.8 15.2267 17.52 14.24C18.24 13.2533 18.6 12.12 18.6 10.84C18.6 9.56 18.4 8.46667 18 7.56C17.6 6.68 17.0533 5.93333 16.36 5.32C14.92 4.01333 13.1333 3.36 11 3.36C8.86667 3.36 7.08 4.01333 5.64 5.32C4.14667 6.65333 3.4 8.49333 3.4 10.84ZM21.32 32.0378C21.32 35.0245 20.32 37.4511 18.32 39.3178C16.4 41.0778 13.96 41.9578 11 41.9578C8.04 41.9578 5.6 41.0778 3.68 39.3178C1.68 37.4511 0.679998 35.0245 0.679999 32.0378C0.679999 29.0511 1.68 26.6245 3.68 24.7578C5.6 22.9978 8.04 22.1178 11 22.1178C13.96 22.1178 16.4 22.9978 18.32 24.7578C20.32 26.6245 21.32 29.0511 21.32 32.0378ZM3.4 32.0378C3.4 34.1978 4.14667 35.9045 5.64 37.1578C7.05333 38.3578 8.84 38.9578 11 38.9578C13.16 38.9578 14.9467 38.3578 16.36 37.1578C17.8533 35.9045 18.6 34.1978 18.6 32.0378C18.6 29.8778 17.8533 28.1711 16.36 26.9178C14.9467 25.7178 13.16 25.1178 11 25.1178C8.84 25.1178 7.05333 25.7178 5.64 26.9178C4.14667 28.1711 3.4 29.8778 3.4 32.0378ZM21 48.9359L17.88 48.9359C18.84 49.6559 19.6533 50.5359 20.32 51.5759C20.9867 52.6159 21.32 53.8026 21.32 55.1359C21.32 56.4693 21.1333 57.6159 20.76 58.5759C20.3867 59.5359 19.8267 60.3759 19.08 61.0959C17.4533 62.7493 15.3067 63.5759 12.64 63.5759L0.999997 63.5759L0.999997 60.5759L12.56 60.5759C14.4 60.5759 15.8667 60.0559 16.96 59.0159C18.0533 57.9759 18.6 56.6293 18.6 54.9759C18.6 53.2959 18.04 51.8693 16.92 50.6959C15.7733 49.5226 14.3067 48.9359 12.52 48.9359L0.999998 48.9359L0.999998 45.9359L21 45.9359L21 48.9359ZM0.999997 70.2834L18.36 70.2834L18.36 66.2034L21 66.2034L21 70.2834L28.16 70.2834L28.16 73.2834L21 73.2834L21 77.8834L18.36 77.8834L18.36 73.2834L0.999997 73.2834L0.999997 70.2834ZM4.2 96.3797C1.85333 94.7797 0.679996 92.393 0.679996 89.2197C0.679996 86.3397 1.68 83.993 3.68 82.1797C5.65333 80.4197 8.09333 79.5397 11 79.5397C13.9067 79.5397 16.3467 80.4197 18.32 82.1797C20.32 83.993 21.32 86.4064 21.32 89.4197C21.32 92.433 20.1333 94.753 17.76 96.3797L21 96.3797L21 99.3797L0.999996 99.3797L0.999996 96.3797L4.2 96.3797ZM3.4 89.6197C3.4 91.7797 4.14666 93.4864 5.64 94.7397C7.05333 95.9397 8.84 96.5397 11 96.5397C13.16 96.5397 14.9467 95.9397 16.36 94.7397C17.8533 93.4864 18.6 91.7797 18.6 89.6197C18.6 87.4864 17.8533 85.753 16.36 84.4197C14.9467 83.1664 13.16 82.5397 11 82.5397C8.84 82.5397 7.05333 83.1664 5.64 84.4197C4.14666 85.753 3.4 87.4864 3.4 89.6197ZM3.4 113.809C3.4 115.089 3.76 116.222 4.48 117.209C5.2 118.195 6.13333 118.915 7.27999 119.369L7.27999 122.609C5.30666 121.995 3.71999 120.875 2.51999 119.249C1.29333 117.542 0.679995 115.515 0.679995 113.169C0.679995 110.235 1.68 107.849 3.68 106.009C5.62666 104.222 8.06666 103.329 11 103.329C13.9333 103.329 16.3733 104.222 18.32 106.009C20.32 107.849 21.32 110.235 21.32 113.169C21.32 115.515 20.7067 117.542 19.48 119.249C18.28 120.875 16.6933 121.995 14.72 122.609L14.72 119.369C15.8667 118.915 16.8 118.195 17.52 117.209C18.24 116.222 18.6 115.089 18.6 113.809C18.6 112.529 18.4 111.435 18 110.529C17.6 109.649 17.0533 108.902 16.36 108.289C14.92 106.982 13.1333 106.329 11 106.329C8.86666 106.329 7.08 106.982 5.64 108.289C4.14666 109.622 3.4 111.462 3.4 113.809ZM0.999994 128.487L18.36 128.487L18.36 124.407L21 124.407L21 128.487L28.16 128.487L28.16 131.487L21 131.487L21 136.087L18.36 136.087L18.36 131.487L0.999994 131.487L0.999994 128.487Z" fill="white"/>
</svg>
