<svg width="43" height="31" viewBox="0 0 43 31" fill="none" xmlns="http://www.w3.org/2000/svg">
<path d="M17.7 30.18C19.5226 30.18 21 28.7026 21 26.88C21 25.0575 19.5226 23.58 17.7 23.58C15.8775 23.58 14.4 25.0575 14.4 26.88C14.4 28.7026 15.8775 30.18 17.7 30.18Z" fill="#691B93"/>
<path d="M32 30.18C33.8225 30.18 35.2999 28.7026 35.2999 26.88C35.2999 25.0575 33.8225 23.58 32 23.58C30.1774 23.58 28.7 25.0575 28.7 26.88C28.7 28.7026 30.1774 30.18 32 30.18Z" fill="#691B93"/>
<path d="M0.0999756 0.150024H9.50498L17.645 17.2H32.22L37.94 5.10002H42.01L34.64 20.5H15.225L7.08498 3.45002H0.0999756V0.150024Z" fill="#691B93"/>
</svg>
