<svg width="44" height="44" viewBox="0 0 44 44" fill="none" xmlns="http://www.w3.org/2000/svg">
<path d="M18.7001 37.18C20.5227 37.18 22.0001 35.7026 22.0001 33.88C22.0001 32.0575 20.5227 30.58 18.7001 30.58C16.8776 30.58 15.4001 32.0575 15.4001 33.88C15.4001 35.7026 16.8776 37.18 18.7001 37.18Z" fill="#691B93"/>
<path d="M33.0002 37.18C34.8227 37.18 36.3002 35.7026 36.3002 33.88C36.3002 32.0575 34.8227 30.58 33.0002 30.58C31.1777 30.58 29.7002 32.0575 29.7002 33.88C29.7002 35.7026 31.1777 37.18 33.0002 37.18Z" fill="#691B93"/>
<path d="M1.1001 7.15002H10.5051L18.6451 24.2H33.2201L38.9401 12.1H43.0101L35.6401 27.5H16.2251L8.0851 10.45H1.1001V7.15002Z" fill="#691B93"/>
</svg>
