<svg width="80" height="80" viewBox="0 0 80 80" fill="none" xmlns="http://www.w3.org/2000/svg">
<path d="M34 67.6C37.3137 67.6 40 64.9137 40 61.6C40 58.2863 37.3137 55.6 34 55.6C30.6863 55.6 28 58.2863 28 61.6C28 64.9137 30.6863 67.6 34 67.6Z" fill="#691B93"/>
<path d="M60 67.6C63.3137 67.6 66 64.9137 66 61.6C66 58.2863 63.3137 55.6 60 55.6C56.6863 55.6 54 58.2863 54 61.6C54 64.9137 56.6863 67.6 60 67.6Z" fill="#691B93"/>
<path d="M2 13H19.1L33.9 44H60.4L70.8 22H78.2L64.8 50H29.5L14.7 19H2V13Z" fill="#691B93"/>
</svg>
