<svg width="39" height="27" viewBox="0 0 39 27" fill="none" xmlns="http://www.w3.org/2000/svg">
<path d="M12.6932 21.3049C12.3963 22.9379 12.2707 24.5594 12.3049 26.1467C12.2707 26.0554 12.2364 25.964 12.2021 25.8727C11.2315 23.3946 9.63278 21.1907 7.55444 19.5234C5.63597 17.9818 3.32925 16.8856 0.737036 16.4174C0.634261 16.3945 0.531486 16.3831 0.428711 16.3603C1.19381 14.9328 1.82188 13.414 2.3015 11.8153C4.75668 12.7631 6.88069 14.2819 8.51367 16.189C12.5447 5.22631 23.9984 -1.60251 35.8975 0.532927C36.7996 0.692799 37.6675 0.898349 38.524 1.14958C26.191 0.304538 14.9314 8.8577 12.6932 21.3049Z" fill="white"/>
</svg>
