<svg width="82" height="249" viewBox="0 0 82 249" fill="none" xmlns="http://www.w3.org/2000/svg">
<path d="M0 20C0 8.95431 8.95431 0 20 0H82V249H20C8.95431 249 0 240.046 0 229V20Z" fill="#691B93"/>
<path d="M30.4 86.84C30.4 88.12 30.76 89.2533 31.48 90.24C32.2 91.2267 33.1333 91.9467 34.28 92.4L34.28 95.64C32.3067 95.0267 30.72 93.9067 29.52 92.28C28.2933 90.5733 27.68 88.5467 27.68 86.2C27.68 83.2667 28.68 80.88 30.68 79.04C32.6267 77.2533 35.0667 76.36 38 76.36C40.9333 76.36 43.3733 77.2533 45.32 79.04C47.32 80.88 48.32 83.2667 48.32 86.2C48.32 88.5467 47.7067 90.5733 46.48 92.28C45.28 93.9067 43.6933 95.0267 41.72 95.64L41.72 92.4C42.8667 91.9467 43.8 91.2267 44.52 90.24C45.24 89.2533 45.6 88.12 45.6 86.84C45.6 85.56 45.4 84.4667 45 83.56C44.6 82.68 44.0533 81.9333 43.36 81.32C41.92 80.0133 40.1333 79.36 38 79.36C35.8667 79.36 34.08 80.0133 32.64 81.32C31.1467 82.6533 30.4 84.4933 30.4 86.84ZM48.32 108.038C48.32 111.024 47.32 113.451 45.32 115.318C43.4 117.078 40.96 117.958 38 117.958C35.04 117.958 32.6 117.078 30.68 115.318C28.68 113.451 27.68 111.024 27.68 108.038C27.68 105.051 28.68 102.624 30.68 100.758C32.6 98.9978 35.04 98.1178 38 98.1178C40.96 98.1178 43.4 98.9978 45.32 100.758C47.32 102.624 48.32 105.051 48.32 108.038ZM30.4 108.038C30.4 110.198 31.1467 111.904 32.64 113.158C34.0533 114.358 35.84 114.958 38 114.958C40.16 114.958 41.9467 114.358 43.36 113.158C44.8533 111.904 45.6 110.198 45.6 108.038C45.6 105.878 44.8533 104.171 43.36 102.918C41.9467 101.718 40.16 101.118 38 101.118C35.84 101.118 34.0533 101.718 32.64 102.918C31.1467 104.171 30.4 105.878 30.4 108.038ZM48 124.936L44.88 124.936C45.84 125.656 46.6533 126.536 47.32 127.576C47.9867 128.616 48.32 129.803 48.32 131.136C48.32 132.469 48.1333 133.616 47.76 134.576C47.3867 135.536 46.8267 136.376 46.08 137.096C44.4533 138.749 42.3067 139.576 39.64 139.576L28 139.576L28 136.576L39.56 136.576C41.4 136.576 42.8667 136.056 43.96 135.016C45.0533 133.976 45.6 132.629 45.6 130.976C45.6 129.296 45.04 127.869 43.92 126.696C42.7733 125.523 41.3067 124.936 39.52 124.936L28 124.936L28 121.936L48 121.936L48 124.936ZM28 146.283L45.36 146.283L45.36 142.203L48 142.203L48 146.283L55.16 146.283L55.16 149.283L48 149.283L48 153.883L45.36 153.883L45.36 149.283L28 149.283L28 146.283ZM31.2 172.38C28.8533 170.78 27.68 168.393 27.68 165.22C27.68 162.34 28.68 159.993 30.68 158.18C32.6533 156.42 35.0933 155.54 38 155.54C40.9067 155.54 43.3467 156.42 45.32 158.18C47.32 159.993 48.32 162.406 48.32 165.42C48.32 168.433 47.1333 170.753 44.76 172.38L48 172.38L48 175.38L28 175.38L28 172.38L31.2 172.38ZM30.4 165.62C30.4 167.78 31.1467 169.486 32.64 170.74C34.0533 171.94 35.84 172.54 38 172.54C40.16 172.54 41.9467 171.94 43.36 170.74C44.8533 169.486 45.6 167.78 45.6 165.62C45.6 163.486 44.8533 161.753 43.36 160.42C41.9467 159.166 40.16 158.54 38 158.54C35.84 158.54 34.0533 159.166 32.64 160.42C31.1467 161.753 30.4 163.486 30.4 165.62ZM30.4 189.809C30.4 191.089 30.76 192.222 31.48 193.209C32.2 194.195 33.1333 194.915 34.28 195.369L34.28 198.609C32.3067 197.995 30.72 196.875 29.52 195.249C28.2933 193.542 27.68 191.515 27.68 189.169C27.68 186.235 28.68 183.849 30.68 182.009C32.6267 180.222 35.0667 179.329 38 179.329C40.9333 179.329 43.3733 180.222 45.32 182.009C47.32 183.849 48.32 186.235 48.32 189.169C48.32 191.515 47.7067 193.542 46.48 195.249C45.28 196.875 43.6933 197.995 41.72 198.609L41.72 195.369C42.8667 194.915 43.8 194.195 44.52 193.209C45.24 192.222 45.6 191.089 45.6 189.809C45.6 188.529 45.4 187.435 45 186.529C44.6 185.649 44.0533 184.902 43.36 184.289C41.92 182.982 40.1333 182.329 38 182.329C35.8667 182.329 34.08 182.982 32.64 184.289C31.1467 185.622 30.4 187.462 30.4 189.809ZM28 204.487L45.36 204.487L45.36 200.407L48 200.407L48 204.487L55.16 204.487L55.16 207.487L48 207.487L48 212.087L45.36 212.087L45.36 207.487L28 207.487L28 204.487Z" fill="white"/>
<path d="M48 54H20V27H67V54H62H60.876L60.2916 54.9601L55 63.6535L49.7084 54.9601L49.124 54H48Z" stroke="white" stroke-width="4"/>
<image x="10" y="20" width="80" height="80" src="form-expand-icon.svg" />
<image x="10" y="20" width="80" height="80" src="bb.svg" />
</svg>
