<svg width="1280" height="171" viewBox="0 0 1280 171" fill="none" xmlns="http://www.w3.org/2000/svg">
<rect y="151" width="1280" height="10" fill="#A576BE"/>
<rect y="161" width="1280" height="10" fill="#C3A4D4"/>
<path d="M1237.22 36.773C1237.22 36.8732 1237.22 36.8732 1237.22 36.773C1228.53 43.8871 1219.32 50.901 1209.84 57.7145C1202.99 62.6242 1195.61 67.4338 1188.24 72.1431C1181.92 76.0509 1175.6 79.7582 1169.02 83.3654C1162.96 86.672 1156.38 89.9785 1149.79 93.0847C1143.21 96.1908 1136.1 99.1968 1128.99 102.103C1126.88 102.904 1125.04 103.706 1122.93 104.507C1116.88 106.712 1110.82 108.916 1104.76 110.92C1094.76 114.227 1084.75 117.333 1074.22 120.339C1060.79 124.146 1046.83 127.653 1032.61 130.86C1012.86 135.369 992.318 139.276 971.251 142.683C952.027 145.889 932.277 148.595 912 151H1122.67C1131.1 151 1139.52 150.699 1147.42 150.298C1169.54 148.996 1190.08 145.889 1208.26 141.381C1226.69 136.771 1242.49 130.759 1254.6 123.746C1266.45 116.932 1274.35 109.016 1278.04 100.6C1279.36 97.4934 1279.88 94.3873 1279.88 91.1809V0C1266.19 12.2243 1252.23 24.6489 1237.22 36.773Z" fill="#691B93"/>
<path d="M1260.92 55.2095C1252.5 61.8227 1243.81 68.2354 1234.59 74.4477C1226.69 79.7583 1218.53 84.9686 1210.1 89.8783C1201.94 94.5877 1193.51 98.9964 1184.82 103.205C1175.86 107.513 1166.12 111.621 1156.11 115.429C1155.85 115.529 1155.85 115.529 1155.59 115.629C1144.79 119.637 1133.73 123.445 1122.14 126.952C1108.71 131.06 1094.76 134.868 1080.54 138.375C1062.89 142.683 1044.72 146.491 1026.03 149.998C1024.18 150.298 1022.34 150.699 1020.5 151H1122.67C1131.1 151 1139.52 150.699 1147.42 150.298C1169.54 148.996 1190.09 145.889 1208.26 141.381C1226.69 136.771 1242.49 130.759 1254.6 123.746C1266.45 116.932 1274.35 109.016 1278.04 100.6C1279.36 97.4934 1279.88 94.3873 1279.88 91.1809V39.5785C1273.83 44.7889 1267.51 50.0994 1260.92 55.2095Z" fill="#8749A9"/>
<path d="M1279.88 76.7527C1270.67 83.466 1260.66 90.0791 1250.39 96.2914C1240.38 102.303 1229.85 108.015 1218.79 113.325C1209.84 117.634 1200.35 121.642 1190.35 125.349C1187.71 126.351 1184.82 127.353 1181.92 128.355C1167.96 133.265 1153.48 137.874 1138.47 141.982C1126.88 145.188 1115.03 148.194 1102.92 151H1279.88V76.7527C1279.88 76.6525 1280.15 76.6525 1279.88 76.7527Z" fill="#A576BE"/>
</svg>
