<svg width="122" height="3000" viewBox="0 0 122 3000" xmlns="http://www.w3.org/2000/svg" xmlns:xlink="http://www.w3.org/1999/xlink">
  <defs>
    <symbol id="off" viewBox="0 1993 40 40">
      <path fill-rule="evenodd" clip-rule="evenodd" d="M19.8076 2012.05L29.7574 2022L34 2017.76L19.8579 2003.62L19.8076 2003.67L19.7574 2003.62L5.61526 2017.76L9.8579 2022L19.8076 2012.05Z"/>
    </symbol>
    <symbol id="on" viewBox="0 1949 40 40">
      <path fill-rule="evenodd" clip-rule="evenodd" d="M20.1924 1969.95L10.2426 1960L6 1964.24L20.1421 1978.38L20.1924 1978.33L20.2426 1978.38L34.3847 1964.24L30.1421 1960L20.1924 1969.95Z"/>
    </symbol>
    <symbol id="link" viewBox="0 1861 84 84">
      <path d="M83.9998 1925H64.1288V1877.73H83.9998V1874.42H72.86C72.5589 1874.42 72.2578 1874.12 72.2578 1873.82C72.2578 1873.52 72.5589 1873.22 72.86 1873.22H83.9998V1869H65.6342C63.5267 1869 61.7202 1870.81 61.7202 1872.91V1932.23C61.7202 1934.33 63.5267 1936.44 65.6342 1936.44H83.9998V1925ZM78.8815 1934.03C77.3761 1934.03 76.1718 1932.83 76.1718 1931.32C76.1718 1929.82 77.3761 1928.61 78.8815 1928.61C80.3869 1928.61 81.5912 1929.82 81.5912 1931.32C81.5912 1932.53 80.3869 1934.03 78.8815 1934.03Z" fill="white"/>
      <path d="M35.2261 1902.42C36.7315 1902.42 37.6347 1903.62 37.6347 1904.83C37.6347 1906.03 36.4304 1907.24 35.2261 1907.24H30.1078C28.6024 1907.24 27.6992 1906.03 27.6992 1904.83C27.6992 1903.62 28.9035 1902.42 30.1078 1902.42H35.2261ZM35.2261 1900.61H30.1078C28.0003 1900.61 26.1938 1902.42 26.1938 1904.53C26.1938 1906.63 28.0003 1908.44 30.1078 1908.44H35.2261C37.3336 1908.44 39.1401 1906.63 39.1401 1904.53C39.1401 1902.42 37.3336 1900.61 35.2261 1900.61Z" fill="white"/>
      <path d="M55.6988 1902.42C57.2041 1902.42 58.1074 1903.62 58.1074 1904.83C58.1074 1906.03 56.9031 1907.24 55.6988 1907.24H50.5805C49.0751 1907.24 48.1719 1906.03 48.1719 1904.83C48.1719 1903.62 49.3762 1902.42 50.5805 1902.42H55.6988ZM55.6988 1900.61H50.5805C48.473 1900.61 46.6665 1902.42 46.6665 1904.53C46.6665 1906.63 48.473 1908.44 50.5805 1908.44H55.6988C57.8063 1908.44 59.6127 1906.63 59.6127 1904.53C59.6127 1902.42 57.8063 1900.61 55.6988 1900.61Z" fill="white"/>
      <path d="M47.2695 1904.83C47.5705 1904.83 47.5705 1904.83 47.8716 1904.83C47.5705 1904.83 47.5705 1904.83 47.2695 1904.83H37.9361C37.6351 1904.83 37.6351 1904.83 37.334 1904.83C37.6351 1904.83 37.6351 1904.83 37.9361 1904.83H47.2695ZM47.2695 1903.92H37.9361C36.7318 1903.92 35.8286 1904.23 35.8286 1904.83C35.8286 1905.13 36.7318 1905.73 37.9361 1905.73H47.2695C48.4738 1905.73 49.377 1905.43 49.377 1904.83C49.377 1904.23 48.4738 1903.92 47.2695 1903.92Z" fill="white"/>
      <path d="M30.1072 1909.95C29.8062 1909.04 29.204 1907.84 27.9997 1906.94C27.3976 1906.33 26.4943 1905.73 25.5911 1905.13C25.5911 1905.43 25.8922 1905.43 25.8922 1905.73C26.4943 1906.03 27.0965 1906.63 27.3976 1906.94C28.3008 1907.84 28.9029 1908.74 29.204 1909.65C29.5051 1910.55 29.5051 1911.45 28.9029 1912.35C27.9997 1914.16 26.1933 1915.67 23.1825 1916.27C20.1718 1917.17 16.8599 1917.17 13.247 1916.27C11.7417 1915.97 10.2363 1915.37 8.7309 1914.76C7.22553 1914.16 6.3223 1913.26 5.41908 1912.66C4.51585 1911.75 3.9137 1910.85 3.61262 1909.95C3.31155 1909.04 3.31155 1908.44 3.61262 1907.54L3.01047 1906.94C2.7094 1907.84 2.7094 1908.74 3.01047 1909.65C3.31155 1910.55 3.9137 1911.75 5.118 1912.66C6.02123 1913.56 7.5266 1914.46 9.03198 1915.06C10.5374 1915.67 12.0427 1916.27 13.8492 1916.57C17.4621 1917.17 20.7739 1917.17 23.7847 1916.57C24.6879 1916.27 25.5911 1915.97 26.4943 1915.67C27.9997 1914.76 29.204 1913.86 29.8062 1912.66C30.4083 1911.75 30.4083 1910.85 30.1072 1909.95Z" fill="white"/>
      <path d="M32.5159 1910.25C32.2148 1909.04 31.3116 1907.84 30.1073 1906.63C28.903 1905.43 27.3976 1904.23 25.5911 1903.32C24.3868 1902.72 23.1825 1902.12 21.6771 1901.82L22.5804 1902.12C22.5804 1902.12 23.4836 1902.72 24.0857 1903.02C24.6879 1903.32 24.989 1903.32 25.5911 1903.62C27.0965 1904.53 28.6019 1905.43 29.8062 1906.33C31.0105 1907.24 31.6126 1908.44 31.9137 1909.65C32.2148 1910.85 32.2148 1911.75 31.9137 1912.96C31.3116 1914.46 30.1073 1915.67 28.3008 1916.57C27.3976 1916.87 26.4944 1917.17 25.5911 1917.47C22.2793 1918.38 18.3653 1918.38 14.1503 1917.47C12.3438 1917.17 10.5374 1916.27 8.73091 1915.67C7.22553 1914.76 5.72016 1913.86 4.51586 1912.96C3.31156 1912.05 2.7094 1910.85 2.40833 1909.65C2.10725 1908.44 2.10725 1907.54 2.40833 1906.33C2.40833 1906.03 2.40833 1906.03 2.7094 1905.73L1.80618 1904.83C1.80618 1905.13 1.5051 1905.43 1.5051 1905.43C1.20403 1906.63 1.20403 1907.84 1.5051 1909.04C1.80618 1910.25 2.7094 1911.45 3.91371 1912.66C5.11801 1913.86 6.62338 1915.06 8.42984 1915.97C10.2363 1916.87 12.0427 1917.47 14.1503 1918.08C18.3653 1918.98 22.2793 1918.98 25.8922 1918.08C26.7954 1917.77 27.9997 1917.47 28.6019 1917.17C30.4083 1916.27 31.9137 1914.76 32.2148 1913.26C33.118 1912.66 32.8169 1911.45 32.5159 1910.25Z" fill="white"/>
      <path d="M26.4942 1907.24C26.1931 1907.24 26.1931 1906.94 26.4942 1907.24C26.7953 1908.14 27.0964 1908.74 27.3974 1909.34C27.6985 1909.95 27.3974 1910.85 27.0964 1911.45C26.1931 1912.96 24.3867 1914.16 21.9781 1914.76C19.5695 1915.37 16.5587 1915.37 13.548 1915.06C12.0426 1914.76 10.8383 1914.46 9.93507 1913.86C8.73077 1913.26 7.82755 1912.66 7.2254 1912.05C6.62325 1911.45 6.0211 1910.85 6.0211 1909.95C6.0211 1909.65 6.0211 1909.34 6.0211 1909.04L5.41895 1908.74C5.41895 1909.95 5.72002 1911.15 6.92432 1912.05C8.4297 1913.56 10.8383 1914.76 13.8491 1915.06C16.8598 1915.67 19.8706 1915.37 22.2792 1914.76C23.1824 1915.06 24.0856 1914.76 24.6878 1914.16C25.8921 1913.56 26.7953 1912.66 27.3974 1911.75C28.3007 1910.25 27.9996 1908.74 26.4942 1907.24Z" fill="white"/>
      <path d="M26.1935 1906.63C26.1935 1905.73 25.5914 1904.83 24.6882 1904.23C24.086 1903.62 22.5806 1902.72 22.5806 1902.72L13.8495 1898.51L13.2473 1898.2C12.9462 1897.9 12.6452 1897.9 12.043 1897.9C11.7419 1897.9 11.4409 1897.9 11.4409 1897.9L0.903226 1900.61H0.602151C0.301075 1900.61 0 1900.91 0 1901.22V1901.52V1902.72V1903.02V1903.32C0 1903.62 0 1903.92 0.301075 1903.92L8.12903 1911.45C9.93548 1913.26 13.2473 1914.16 16.8602 1914.16C21.9785 1914.16 26.1935 1912.05 26.1935 1909.65V1908.74V1907.84V1907.24V1906.63Z" fill="lightgrey"/>
      <path d="M16.8602 1911.45C13.2473 1911.45 10.2366 1910.55 8.43011 1909.04L0 1902.12V1903.62V1903.92C0 1904.23 0 1904.53 0.301075 1904.53L8.12903 1912.05C9.93548 1913.26 13.2473 1914.16 16.8602 1914.16C21.9785 1914.16 26.1935 1912.05 26.1935 1909.65V1907.54C25.5914 1909.65 21.6774 1911.45 16.8602 1911.45Z" fill="white"/>
      <path d="M25.8927 1906.33C25.8927 1909.04 21.6776 1910.85 16.8604 1910.85C13.2475 1910.85 10.2368 1909.95 8.73137 1908.44L0.602345 1901.52L0.30127 1901.22C0.30127 1900.91 0.602345 1900.91 0.90342 1900.61H1.2045L11.7421 1897.9C12.0432 1897.9 12.3443 1897.9 12.3443 1897.9C12.9464 1897.9 13.2475 1897.9 13.5486 1898.2L22.2798 1902.42C22.2798 1902.42 23.7851 1903.32 24.3873 1903.92C25.5916 1904.53 25.8927 1905.13 25.8927 1906.33C25.8927 1906.03 25.8927 1906.03 25.8927 1906.33Z" fill="white"/>
    </symbol>
    <symbol id="rna" viewBox="0 1773 84 84">
      <path d="M0 1783.39C0 1777.75 4.74912 1773 10.3887 1773H73.6113C79.5477 1773 84 1777.75 84 1783.39V1814.85C84 1838 65.3004 1857 41.8516 1857H10.3887C4.4523 1857 0 1852.25 0 1846.61V1783.39Z" fill="white"/>
      <path d="M39.7741 1852.84C43.6327 1852.84 46.8977 1849.58 46.8977 1845.72C46.8977 1841.86 43.6327 1838.6 39.7741 1838.6C35.9154 1838.6 32.6504 1841.86 32.6504 1845.72C32.6504 1849.58 35.9154 1852.84 39.7741 1852.84Z" fill="#30ACC8"/>
      <path d="M55.5051 1804.46C55.5051 1813.96 52.8337 1823.16 48.0846 1830.58C47.7878 1830.88 47.7878 1831.18 47.491 1831.47C46.6005 1832.66 45.4132 1833.25 43.9291 1833.25C41.2578 1833.25 39.18 1831.18 39.18 1828.51V1828.21C39.18 1827.61 39.4768 1827.32 39.4768 1826.72C40.0705 1823.76 40.3673 1820.49 40.3673 1817.23C40.3673 1803.28 34.7277 1790.51 25.2295 1781.31C27.0104 1781.9 28.7913 1782.2 30.8691 1782.2C37.1023 1782.2 42.7419 1780.42 47.7878 1777.16C52.5369 1785.17 55.5051 1794.37 55.5051 1804.46Z" fill="#30ACC8"/>
    </symbol>
    <symbol id="help" viewBox="0 1729 40 40">
      <path d="M0 1734C0 1731.24 2.23858 1729 5 1729H35C37.7614 1729 40 1731.24 40 1734V1749C40 1760.05 31.0457 1769 20 1769H5C2.23858 1769 0 1766.76 0 1764V1734Z" fill="#e1d1e9"/>
      <path d="M26.7303 1743.42C26.7303 1744.14 26.6103 1744.78 26.3703 1745.34C26.1303 1745.9 25.8203 1746.41 25.4403 1746.87C25.0803 1747.31 24.6803 1747.72 24.2403 1748.1C23.8203 1748.48 23.4203 1748.88 23.0403 1749.3C22.2003 1750.26 21.7803 1751.33 21.7803 1752.51H19.5903C19.5903 1750.65 20.4203 1748.96 22.0803 1747.44C23.1003 1746.54 23.7703 1745.79 24.0903 1745.19C24.4303 1744.57 24.6003 1744.01 24.6003 1743.51C24.6003 1743.01 24.5403 1742.57 24.4203 1742.19C24.3003 1741.79 24.0903 1741.42 23.7903 1741.08C23.1103 1740.34 22.1003 1739.97 20.7603 1739.97C19.3803 1739.97 18.2603 1740.38 17.4003 1741.2C16.6003 1741.96 16.1603 1742.9 16.0803 1744.02H13.9503C14.0303 1742.32 14.6603 1740.89 15.8403 1739.73C17.1003 1738.51 18.6803 1737.9 20.5803 1737.9C22.6203 1737.9 24.1803 1738.46 25.2603 1739.58C26.2403 1740.6 26.7303 1741.88 26.7303 1743.42ZM22.1403 1754.94V1758H19.2303V1754.94H22.1403Z" fill="#691B93"/>
      <path d="M26.3703 1745.34L25.9107 1745.14V1745.14L26.3703 1745.34ZM25.4403 1746.87L25.0548 1746.55L25.0533 1746.55L25.4403 1746.87ZM24.2403 1748.1L23.9134 1747.72L23.9048 1747.73L24.2403 1748.1ZM23.0403 1749.3L22.6695 1748.96L22.664 1748.97L23.0403 1749.3ZM21.7803 1752.51V1753.01H22.2803V1752.51H21.7803ZM19.5903 1752.51H19.0903V1753.01H19.5903V1752.51ZM22.0803 1747.44L21.7494 1747.07L21.7426 1747.07L22.0803 1747.44ZM24.0903 1745.19L23.6518 1744.95L23.6491 1744.95L24.0903 1745.19ZM24.4203 1742.19L23.9413 1742.33L23.9435 1742.34L24.4203 1742.19ZM23.7903 1741.08L24.1653 1740.75L24.1584 1740.74L23.7903 1741.08ZM17.4003 1741.2L17.7446 1741.56L17.7453 1741.56L17.4003 1741.2ZM16.0803 1744.02V1744.52H16.5458L16.579 1744.06L16.0803 1744.02ZM13.9503 1744.02L13.4508 1744L13.4262 1744.52H13.9503V1744.02ZM15.8403 1739.73L15.4925 1739.37L15.4898 1739.37L15.8403 1739.73ZM25.2603 1739.58L25.6208 1739.23L25.6202 1739.23L25.2603 1739.58ZM22.1403 1754.94H22.6403V1754.44H22.1403V1754.94ZM22.1403 1758V1758.5H22.6403V1758H22.1403ZM19.2303 1758H18.7303V1758.5H19.2303V1758ZM19.2303 1754.94V1754.44H18.7303V1754.94H19.2303ZM26.2303 1743.42C26.2303 1744.08 26.1196 1744.66 25.9107 1745.14L26.8298 1745.54C27.1009 1744.9 27.2303 1744.2 27.2303 1743.42H26.2303ZM25.9107 1745.14C25.6891 1745.66 25.4038 1746.13 25.0548 1746.55L25.8258 1747.19C26.2368 1746.69 26.5715 1746.14 26.8298 1745.54L25.9107 1745.14ZM25.0533 1746.55C24.7119 1746.97 24.3322 1747.36 23.9135 1747.72L24.5671 1748.48C25.0284 1748.08 25.4486 1747.65 25.8273 1747.19L25.0533 1746.55ZM23.9048 1747.73C23.4725 1748.12 23.0607 1748.53 22.6695 1748.96L23.411 1749.64C23.7799 1749.23 24.1681 1748.84 24.5757 1748.47L23.9048 1747.73ZM22.664 1748.97C21.7512 1750.01 21.2803 1751.2 21.2803 1752.51H22.2803C22.2803 1751.46 22.6493 1750.51 23.4166 1749.63L22.664 1748.97ZM21.7803 1752.01H19.5903V1753.01H21.7803V1752.01ZM20.0903 1752.51C20.0903 1750.82 20.8378 1749.26 22.4179 1747.81L21.7426 1747.07C20.0027 1748.66 19.0903 1750.48 19.0903 1752.51H20.0903ZM22.4111 1747.81C23.4403 1746.91 24.1673 1746.11 24.5315 1745.43L23.6491 1744.95C23.3732 1745.47 22.7603 1746.17 21.7495 1747.07L22.4111 1747.81ZM24.5287 1745.43C24.8933 1744.77 25.1003 1744.12 25.1003 1743.51H24.1003C24.1003 1743.9 23.9672 1744.37 23.6519 1744.95L24.5287 1745.43ZM25.1003 1743.51C25.1003 1742.97 25.0358 1742.48 24.8971 1742.04L23.9435 1742.34C24.0448 1742.66 24.1003 1743.05 24.1003 1743.51H25.1003ZM24.8992 1742.05C24.7567 1741.57 24.5088 1741.14 24.1652 1740.75L23.4154 1741.41C23.6717 1741.7 23.8438 1742.01 23.9414 1742.33L24.8992 1742.05ZM24.1584 1740.74C23.3551 1739.87 22.1914 1739.47 20.7603 1739.47V1740.47C22.0092 1740.47 22.8654 1740.81 23.4221 1741.42L24.1584 1740.74ZM20.7603 1739.47C19.274 1739.47 18.0232 1739.92 17.0552 1740.84L17.7453 1741.56C18.4974 1740.84 19.4865 1740.47 20.7603 1740.47V1739.47ZM17.0559 1740.84C16.1637 1741.69 15.6703 1742.74 15.5815 1743.98L16.579 1744.06C16.6503 1743.06 17.0368 1742.23 17.7446 1741.56L17.0559 1740.84ZM16.0803 1743.52H13.9503V1744.52H16.0803V1743.52ZM14.4497 1744.04C14.524 1742.47 15.1034 1741.16 16.1908 1740.09L15.4898 1739.37C14.2171 1740.62 13.5366 1742.17 13.4508 1744L14.4497 1744.04ZM16.1881 1740.09C17.3466 1738.97 18.7982 1738.4 20.5803 1738.4V1737.4C18.5623 1737.4 16.8539 1738.05 15.4925 1739.37L16.1881 1740.09ZM20.5803 1738.4C22.5287 1738.4 23.9414 1738.93 24.9004 1739.93L25.6202 1739.23C24.4192 1737.99 22.7119 1737.4 20.5803 1737.4V1738.4ZM24.8997 1739.93C25.7819 1740.84 26.2303 1742 26.2303 1743.42H27.2303C27.2303 1741.76 26.6986 1740.36 25.6208 1739.23L24.8997 1739.93ZM21.6403 1754.94V1758H22.6403V1754.94H21.6403ZM22.1403 1757.5H19.2303V1758.5H22.1403V1757.5ZM19.7303 1758V1754.94H18.7303V1758H19.7303ZM19.2303 1755.44H22.1403V1754.44H19.2303V1755.44Z" fill="#691B93"/>
    </symbol>
    <symbol id="ribbon" viewBox="0 1645 60 80">
      <path d="M24.2212 1703.56L20.0569 1704.91C19.6319 1704.99 19.292 1705.08 18.8671 1705.08C17.4223 1705.08 16.1475 1704.32 15.4676 1703.06L13.513 1699.19L11.8132 1699.02L3.56962 1716.44C2.97472 1717.78 4.07953 1719.21 5.52429 1718.96L11.4733 1717.87C12.2382 1717.7 13.003 1718.04 13.428 1718.79L16.4025 1724.09C17.0824 1725.36 19.037 1725.27 19.6319 1724.01L27.8756 1706.68C27.7906 1706.59 27.7056 1706.59 27.6206 1706.51L24.2212 1703.56Z" fill="#691B93"/>
      <path d="M48.1868 1699.02L46.4871 1699.19L44.5324 1703.06C43.8525 1704.32 42.5777 1705.08 41.133 1705.08C40.7081 1705.08 40.3681 1704.99 39.9432 1704.91L35.7789 1703.56L32.4644 1706.34C32.3794 1706.42 32.2945 1706.51 32.2095 1706.51L40.4531 1723.84C41.133 1725.19 43.0027 1725.27 43.6826 1723.93L46.5721 1718.63C46.997 1717.95 47.7619 1717.62 48.5268 1717.7L54.4758 1718.79C55.9205 1719.05 57.1103 1717.62 56.4304 1716.27L48.1868 1699.02Z" fill="#691B93"/>
      <path d="M59.745 1675.29C60.085 1674.95 60.085 1674.45 59.745 1674.11L56.1756 1669.99C55.9207 1669.74 55.9207 1669.4 56.0057 1669.06L57.7054 1663.93C57.8754 1663.51 57.6204 1663.01 57.2805 1662.84L52.4363 1660.4C52.1813 1660.23 51.9263 1659.98 51.9263 1659.64L51.5014 1654.26C51.5014 1653.84 51.0765 1653.41 50.6516 1653.41L45.1275 1652.99C44.7875 1652.99 44.5326 1652.74 44.3626 1652.49L41.898 1647.69C41.728 1647.27 41.2181 1647.1 40.7932 1647.27L35.6091 1648.95C35.2691 1649.04 34.9292 1648.95 34.6742 1648.79L30.5099 1645.25C30.17 1644.92 29.6601 1644.92 29.3201 1645.25L25.2408 1648.79C24.9858 1649.04 24.6459 1649.04 24.3059 1648.95L19.1218 1647.27C18.6969 1647.1 18.187 1647.36 18.017 1647.69L15.5524 1652.49C15.3824 1652.74 15.1275 1652.99 14.7875 1652.99L9.34844 1653.41C8.92351 1653.41 8.49858 1653.84 8.49858 1654.26L8.07366 1659.64C8.07366 1659.98 7.8187 1660.23 7.56374 1660.4L2.71955 1662.84C2.29462 1663.01 2.12465 1663.51 2.29462 1663.93L3.99433 1669.06C4.07932 1669.4 3.99434 1669.74 3.82436 1669.99L0.254958 1674.11C-0.0849858 1674.45 -0.0849858 1674.95 0.254958 1675.29L3.82436 1679.41C4.07932 1679.67 4.07932 1680 3.99433 1680.34L2.29462 1685.47C2.12465 1685.89 2.3796 1686.4 2.71955 1686.57L7.56374 1689.01C7.8187 1689.18 8.07366 1689.43 8.07366 1689.76L8.49858 1695.15C8.49858 1695.57 8.92351 1695.99 9.34844 1695.99L14.7875 1696.41C15.1275 1696.41 15.3824 1696.66 15.5524 1696.92L18.017 1701.71C18.187 1702.13 18.6969 1702.3 19.1218 1702.13L24.3059 1700.45C24.6459 1700.37 24.9858 1700.45 25.2408 1700.62L29.4051 1704.15C29.745 1704.49 30.255 1704.49 30.5949 1704.15L34.7592 1700.62C35.0142 1700.37 35.3541 1700.37 35.6941 1700.45L40.8782 1702.13C41.3031 1702.3 41.813 1702.05 41.983 1701.71L44.4476 1696.92C44.6176 1696.66 44.8725 1696.41 45.2125 1696.41L50.6516 1695.99C51.0765 1695.99 51.5014 1695.57 51.5014 1695.15L51.9263 1689.76C51.9263 1689.43 52.1813 1689.18 52.4363 1689.01L57.2805 1686.57C57.7054 1686.4 57.8754 1685.89 57.7054 1685.47L56.0057 1680.34C55.9207 1680 56.0057 1679.67 56.1756 1679.41L59.745 1675.29ZM30 1694.73C18.8669 1694.73 9.77337 1685.73 9.77337 1674.7C9.77337 1663.68 18.8669 1654.68 30 1654.68C41.1331 1654.68 50.2266 1663.68 50.2266 1674.7C50.2266 1685.73 41.1331 1694.73 30 1694.73Z" fill="#691B93"/>
      <path d="M12.6626 1674.7C12.6626 1665.19 20.4813 1657.54 29.9997 1657.54C39.5181 1657.54 47.3368 1665.28 47.3368 1674.7C47.3368 1684.13 39.5181 1691.87 29.9997 1691.87C20.4813 1691.87 12.6626 1684.21 12.6626 1674.7Z" fill="#691B93"/>
      <path d="M34.976 1666.67C34.976 1667.36 34.768 1668.02 34.352 1668.66C33.952 1669.3 33.44 1669.9 32.816 1670.46C32.192 1671.02 31.512 1671.55 30.776 1672.05C30.056 1672.54 29.376 1673.03 28.736 1673.51C28.096 1673.98 27.552 1674.44 27.104 1674.9C26.672 1675.35 26.432 1675.81 26.384 1676.27H34.928V1678H24.248V1677.02C24.248 1676.23 24.464 1675.52 24.896 1674.88C25.344 1674.22 25.896 1673.62 26.552 1673.06C27.224 1672.48 27.944 1671.94 28.712 1671.45C29.48 1670.94 30.192 1670.42 30.848 1669.91C31.52 1669.4 32.072 1668.88 32.504 1668.35C32.952 1667.82 33.176 1667.26 33.176 1666.65C33.176 1665.72 32.864 1664.99 32.24 1664.46C31.632 1663.94 30.776 1663.67 29.672 1663.67C28.568 1663.67 27.68 1663.91 27.008 1664.39C26.352 1664.86 25.96 1665.54 25.832 1666.43H24.032C24.16 1665.09 24.744 1664 25.784 1663.17C26.824 1662.34 28.08 1661.92 29.552 1661.92C31.232 1661.92 32.568 1662.37 33.56 1663.26C34.504 1664.13 34.976 1665.26 34.976 1666.67Z" fill="white"/>
      <path d="M20.782 1687.78H20.053L20.872 1685.94L19.036 1681.5H19.783L21.232 1685.19L22.708 1681.5H23.446L20.782 1687.78ZM25.9953 1685.46C26.6013 1685.46 27.0363 1685.21 27.3003 1684.7H28.0383C27.8823 1685.11 27.6333 1685.44 27.2913 1685.69C26.9553 1685.95 26.5203 1686.07 25.9863 1686.07C25.3083 1686.07 24.7563 1685.85 24.3303 1685.4C23.9163 1684.96 23.7093 1684.41 23.7093 1683.75C23.7093 1683.08 23.9073 1682.53 24.3033 1682.1C24.7233 1681.65 25.2693 1681.43 25.9413 1681.43C26.6133 1681.43 27.1593 1681.65 27.5793 1682.1C27.9753 1682.53 28.1733 1683.08 28.1733 1683.75V1684.02H24.4023C24.4503 1684.43 24.6153 1684.78 24.8973 1685.05C25.1853 1685.32 25.5513 1685.46 25.9953 1685.46ZM25.9413 1682.04C25.5273 1682.04 25.1793 1682.17 24.8973 1682.43C24.6333 1682.67 24.4713 1682.99 24.4113 1683.39H27.4713C27.4113 1682.99 27.2493 1682.67 26.9853 1682.43C26.7033 1682.17 26.3553 1682.04 25.9413 1682.04ZM32.5081 1685.28C32.1481 1685.81 31.6111 1686.07 30.8971 1686.07C30.2491 1686.07 29.7211 1685.85 29.3131 1685.4C28.9171 1684.95 28.7191 1684.4 28.7191 1683.75C28.7191 1683.1 28.9171 1682.55 29.3131 1682.1C29.7211 1681.65 30.2641 1681.43 30.9421 1681.43C31.6201 1681.43 32.1421 1681.69 32.5081 1682.23V1681.5H33.1831V1686H32.5081V1685.28ZM30.9871 1685.46C31.4731 1685.46 31.8571 1685.29 32.1391 1684.96C32.4091 1684.64 32.5441 1684.24 32.5441 1683.75C32.5441 1683.26 32.4091 1682.86 32.1391 1682.54C31.8571 1682.21 31.4731 1682.04 30.9871 1682.04C30.5071 1682.04 30.1171 1682.21 29.8171 1682.54C29.5351 1682.86 29.3941 1683.26 29.3941 1683.75C29.3941 1684.24 29.5351 1684.64 29.8171 1684.96C30.1171 1685.29 30.5071 1685.46 30.9871 1685.46ZM36.7266 1681.43V1682.1H36.6456C36.1596 1682.1 35.7636 1682.3 35.4576 1682.69C35.1696 1683.06 35.0256 1683.5 35.0256 1684.02V1686H34.3506V1681.5H35.0256V1682.61C35.1696 1682.14 35.4816 1681.79 35.9616 1681.57C36.1596 1681.48 36.3996 1681.43 36.6816 1681.43H36.7266ZM40.0992 1682.71C40.0392 1682.24 39.6612 1682 38.9652 1682C38.2752 1682 37.9302 1682.22 37.9302 1682.65C37.9302 1682.83 38.0022 1682.97 38.1462 1683.07C38.2962 1683.16 38.4822 1683.23 38.7042 1683.29C38.9262 1683.35 39.1662 1683.41 39.4242 1683.46C39.6882 1683.51 39.9312 1683.58 40.1532 1683.68C40.3752 1683.77 40.5582 1683.89 40.7022 1684.06C40.8522 1684.22 40.9272 1684.44 40.9272 1684.72C40.9272 1685.16 40.7622 1685.5 40.4322 1685.73C40.1022 1685.96 39.6552 1686.07 39.0912 1686.07C38.4912 1686.07 38.0142 1685.92 37.6602 1685.62C37.3362 1685.36 37.1622 1685.01 37.1382 1684.59H37.8402C37.8822 1685 38.1162 1685.28 38.5422 1685.42C38.6982 1685.47 38.8512 1685.5 39.0012 1685.5C39.1572 1685.5 39.3012 1685.49 39.4332 1685.47C39.5652 1685.45 39.6942 1685.42 39.8202 1685.37C40.1082 1685.26 40.2522 1685.06 40.2522 1684.78C40.2522 1684.6 40.1772 1684.46 40.0272 1684.36C39.8832 1684.26 39.7002 1684.18 39.4782 1684.12C39.2562 1684.05 39.0132 1684 38.7492 1683.95C38.4912 1683.89 38.2512 1683.82 38.0292 1683.73C37.8072 1683.64 37.6212 1683.52 37.4712 1683.36C37.3272 1683.21 37.2552 1682.99 37.2552 1682.71C37.2552 1682.31 37.4022 1681.99 37.6962 1681.77C37.9962 1681.54 38.4372 1681.43 39.0192 1681.43C39.5712 1681.43 40.0062 1681.56 40.3242 1681.82C40.5882 1682.05 40.7412 1682.34 40.7832 1682.71H40.0992Z" fill="white"/>
    </symbol>
    <symbol id="umbrella" viewBox="0 1557 84 84">
      <path d="M42.5079 1564C23.8863 1564 8.15081 1576.32 3 1593.25C5.61865 1591.3 8.85855 1590.16 12.3737 1590.16C16.1955 1590.16 19.6949 1591.52 22.4158 1593.78C25.1367 1591.52 28.6439 1590.16 32.4579 1590.16C35.7214 1590.16 38.7568 1591.15 41.2732 1592.85V1623.96C41.2732 1624.01 41.2732 1624.06 41.2732 1624.1C41.2732 1629.52 45.677 1633.93 51.103 1633.93C56.5291 1633.93 60.9328 1629.52 60.9328 1624.1C60.9328 1623.43 60.8699 1622.79 60.7441 1622.16C60.6418 1621.63 60.4924 1621.12 60.3037 1620.64C60.17 1620.1 59.6903 1619.71 59.1084 1619.71C58.4321 1619.71 57.8816 1620.26 57.8816 1620.93C57.8816 1621.1 57.9131 1621.26 57.976 1621.41C58.1333 1621.81 58.2512 1622.22 58.3377 1622.64C58.4321 1623.11 58.4793 1623.6 58.4793 1624.1C58.4793 1628.16 55.1686 1631.47 51.103 1631.47C47.0374 1631.47 43.7268 1628.16 43.7268 1624.1C43.7268 1624.05 43.7268 1624 43.7268 1623.96V1592.85C46.2432 1591.15 49.2708 1590.16 52.5421 1590.16C56.3639 1590.16 59.8633 1591.52 62.5842 1593.78C65.3051 1591.52 68.8124 1590.16 72.6263 1590.16C76.1415 1590.16 79.3892 1591.31 82 1593.25C76.8571 1576.32 61.1215 1564 42.5079 1564Z" fill="white"/>
    </symbol>
    <symbol id="watch" viewBox="0 1469 84 84">
      <path d="M32.4658 1472L29.9893 1482.64H58.0929L55.6164 1472H32.4658ZM26.2329 1484.41C22.7799 1484.41 20 1487.57 20 1491.5V1530.5C20 1534.43 22.7799 1537.59 26.2329 1537.59H61.8493C65.3023 1537.59 68.0822 1534.43 68.0822 1530.5V1491.5C68.0822 1487.57 65.3023 1484.41 61.8493 1484.41H26.2329V1484.41ZM43.1507 1490.61H44.9315V1495.93H43.1507V1490.61ZM34.5805 1492.88L37.2517 1497.48L35.6935 1498.37L33.0223 1493.77L34.5805 1492.88ZM53.5017 1492.88L55.0599 1493.77L52.3887 1498.37L50.8305 1497.48L53.5017 1492.88ZM44.0411 1497.7L45.8219 1499.48L44.3194 1509.25C45.044 1509.37 45.6377 1509.91 45.7941 1510.61L52.0548 1509.23L53.8356 1511L52.0548 1512.77L45.7663 1511.39C45.5793 1512.17 44.8817 1512.77 44.0411 1512.77C43.0576 1512.77 42.2603 1511.98 42.2603 1511C42.2603 1510.12 42.9116 1509.39 43.7628 1509.25L42.2603 1499.48L44.0411 1497.7ZM26.7616 1500.03L31.3806 1502.69L30.4902 1504.21L25.8711 1501.55L26.7616 1500.03ZM61.3206 1500.03L62.211 1501.55L57.592 1504.21L56.7016 1502.69L61.3206 1500.03ZM69.863 1509.23V1512.77H73.4247V1509.23H69.863ZM23.5616 1510.11H28.9041V1511.89H23.5616V1510.11ZM59.1781 1510.11H64.5205V1511.89H59.1781V1510.11ZM30.4902 1517.76L31.3806 1519.28L26.7616 1521.94L25.8711 1520.42L30.4902 1517.76ZM57.592 1517.76L62.211 1520.42L61.3206 1521.94L56.7016 1519.28L57.592 1517.76ZM35.6935 1523.6L37.2517 1524.49L34.5805 1529.09L33.0223 1528.2L35.6935 1523.6ZM52.3887 1523.6L55.0599 1528.2L53.5017 1529.09L50.8305 1524.49L52.3887 1523.6ZM43.1507 1526.07H44.9315V1531.39H43.1507V1526.07ZM29.9893 1539.36L32.4658 1550H55.6164L58.0929 1539.36H29.9893Z" fill="white"/>
    </symbol>
    <symbol id="close" viewBox="0 1385 80 80">
      <path fill-rule="evenodd" clip-rule="evenodd" d="M40 1411.67L20 1385H0L30 1425L0 1465H20L40 1438.33L60 1465H80L50 1425L80 1385H60L40 1411.67Z" fill="#691B93"/>
    </symbol>
    <symbol id="check" viewBox="0 1297 84 84">
      <circle cx="42" cy="1339" r="42" fill="#691B93"/>
      <path d="M49.7554 1356.44C49.1319 1359.87 48.8681 1363.27 48.94 1366.61C48.8681 1366.42 48.7962 1366.22 48.7242 1366.03C46.6859 1360.83 43.3285 1356.2 38.964 1352.7C34.9353 1349.46 30.0911 1347.16 24.6475 1346.18C24.4317 1346.13 24.2158 1346.1 24 1346.06C25.6067 1343.06 26.9257 1339.87 27.9329 1336.51C33.0887 1338.5 37.5492 1341.69 40.9784 1345.7C49.4436 1322.68 73.4964 1308.33 98.4844 1312.82C100.379 1313.15 102.201 1313.59 104 1314.11C78.1007 1312.34 54.4556 1330.3 49.7554 1356.44Z" fill="white"/>
    </symbol>
    <symbol id="favicon" viewBox="0 1213 80 80">
      <path d="M70.0845 1235.47C69.8397 1229.11 67.5136 1224.09 63.1062 1220.54C62.8205 1220.33 62.5349 1220.09 62.2492 1219.88C60.4944 1218.62 58.454 1217.6 56.1279 1216.82C53.8017 1216.05 51.19 1215.48 48.3333 1215.19C46.4969 1214.99 44.5381 1214.9 42.4568 1214.9C39.0289 1214.9 35.8458 1215.15 32.9075 1215.68C28.2145 1216.5 24.2152 1218.01 20.9505 1220.17C20.0527 1220.78 19.2365 1221.39 18.4611 1222.09C14.8291 1225.39 12.9927 1229.72 12.9927 1234.98C12.9927 1236.21 13.0335 1237.1 13.0743 1237.72H24.3784V1236.41C24.3784 1234.53 24.7865 1232.86 25.6027 1231.31C26.2556 1230.04 27.1534 1228.94 28.3369 1227.88C30.2141 1226.25 33.0299 1225.19 36.7027 1224.7C38.1311 1224.54 39.6818 1224.41 41.3958 1224.41C44.6605 1224.41 47.4355 1224.74 49.7208 1225.35C50.8227 1225.64 51.7613 1226 52.6183 1226.45C53.4753 1226.9 54.2098 1227.39 54.7812 1227.96C56.9848 1230 58.2091 1232.9 58.4948 1236.53C58.5356 1237.02 58.5356 1237.55 58.5356 1238.08V1246.57H58.1683C56.2095 1246.57 54.3323 1246.61 52.4958 1246.65C50.2105 1246.74 48.0069 1246.82 45.8848 1246.98C43.1914 1247.18 40.6204 1247.43 38.2127 1247.76C34.948 1248.2 31.9281 1248.78 29.1531 1249.43C28.9082 1249.47 28.7042 1249.55 28.4593 1249.59C26.0516 1250.2 23.8887 1250.94 21.8891 1251.76C20.0935 1252.49 18.4611 1253.39 17.0736 1254.45C13.6864 1256.94 11.4011 1260.28 10.2993 1264.45C9.80959 1266.41 9.52393 1268.53 9.52393 1270.81C9.52393 1272.85 9.68716 1274.73 10.0544 1276.44C10.5033 1278.77 11.2787 1280.77 12.3806 1282.48C13.4824 1284.2 14.8699 1285.59 16.5839 1286.65C16.6655 1286.69 16.7063 1286.73 16.7879 1286.77C20.4607 1288.97 24.5417 1290.36 28.9898 1290.89C29.806 1291.01 30.663 1291.05 31.52 1291.1C34.8663 1290.89 38.1311 1290.24 41.2326 1289.18C44.0892 1288.2 46.8642 1286.85 49.5168 1285.18C51.1083 1284.16 52.6591 1283.06 54.1282 1281.83C55.0668 1281.1 55.9646 1280.28 56.8216 1279.42C57.4337 1278.85 58.0459 1278.24 58.6172 1277.63C59.1069 1277.14 59.5558 1276.61 60.0047 1276.12C60.4128 1275.67 60.8209 1275.18 61.229 1274.69C61.6371 1274.2 62.0044 1273.71 62.4124 1273.22C62.8613 1272.65 63.2694 1272.08 63.6775 1271.47C64.208 1270.73 64.7386 1269.96 65.2283 1269.14C65.9628 1268 66.6566 1266.77 67.3503 1265.55C67.3912 1265.51 67.3911 1265.47 67.432 1265.43L67.4728 1265.39L67.636 1265.1C67.636 1265.06 67.6768 1265.02 67.6768 1265.02C68.5338 1263.39 69.1867 1261.59 69.5948 1259.75V1259.71C69.9213 1258.28 70.0845 1256.82 70.0845 1255.31V1236.49C70.1254 1236.17 70.1254 1235.8 70.0845 1235.47ZM56.74 1270.24C56.6992 1270.32 56.6584 1270.41 56.6176 1270.49C56.5768 1270.57 56.5359 1270.65 56.4951 1270.69C56.4543 1270.77 56.4135 1270.81 56.3727 1270.89C56.3319 1270.98 56.2911 1271.06 56.2503 1271.14C56.2095 1271.22 56.1278 1271.34 56.087 1271.43C56.0054 1271.55 55.9238 1271.71 55.8422 1271.83C55.679 1272.08 55.5157 1272.32 55.3525 1272.57C54.9444 1273.18 54.4955 1273.75 54.0058 1274.28C53.5569 1274.81 53.0672 1275.3 52.5367 1275.79C51.7205 1276.57 50.8227 1277.26 49.8433 1277.87C49.0271 1278.4 48.1293 1278.89 47.2315 1279.3C45.3951 1280.12 43.5179 1280.73 41.5998 1281.1C40.0083 1281.42 38.3759 1281.55 36.7436 1281.55C34.2542 1281.55 32.0505 1281.3 30.1733 1280.85C28.3369 1280.4 26.7862 1279.75 25.5619 1278.89C24.0928 1277.87 23.0317 1276.44 22.4196 1274.69C21.9299 1273.34 21.685 1271.79 21.685 1270C21.685 1268.53 21.9299 1267.14 22.3788 1265.92C23.399 1263.18 25.5619 1261.06 28.8266 1259.63C28.9898 1259.55 29.1531 1259.51 29.3163 1259.43C29.8468 1259.22 30.4182 1259.02 30.9895 1258.82C33.1116 1258.12 35.6009 1257.59 38.4983 1257.14C40.498 1256.86 42.6609 1256.61 44.987 1256.41C46.4969 1256.29 48.0885 1256.2 49.7616 1256.12C51.0267 1256.08 52.3734 1256.04 53.7609 1256C54.9852 1255.96 56.2503 1255.96 57.5562 1255.96H58.5764V1261.63C58.5764 1262.28 58.5356 1262.9 58.4948 1263.51V1263.55C58.3724 1264.98 58.1275 1266.36 57.7602 1267.63C57.597 1268.12 57.4337 1268.65 57.2705 1269.1V1269.14C57.1889 1269.34 57.1073 1269.59 56.9848 1269.79C56.8624 1270 56.7808 1270.12 56.74 1270.24Z" fill="#691B93"/>
    </symbol>
    <symbol id="speech-bubble" viewBox="0 859 81 350">
      <g clip-path="url(#clip0)">
        <rect width="122" height="3000" fill="white"/>
        <path d="M17.2105 953.076C17.2105 955.528 17.9001 957.699 19.2793 959.589C20.6586 961.479 22.4465 962.858 24.643 963.726V969.933C20.8629 968.758 17.8235 966.613 15.5247 963.497C13.1749 960.227 12 956.345 12 951.85C12 946.23 13.9156 941.659 17.7468 938.134C21.4759 934.711 26.15 933 31.7691 933C37.3882 933 42.0622 934.711 45.7914 938.134C49.6226 941.659 51.5382 946.23 51.5382 951.85C51.5382 956.345 50.3633 960.227 48.0135 963.497C45.7147 966.613 42.6752 968.758 38.8952 969.933V963.726C41.0918 962.858 42.8796 961.479 44.2589 959.589C45.6381 957.699 46.3277 955.528 46.3277 953.076C46.3277 950.624 45.9446 948.529 45.1784 946.792C44.4121 945.107 43.3649 943.676 42.0368 942.501C39.2783 939.998 35.8557 938.747 31.7691 938.747C27.6825 938.747 24.2599 939.998 21.5014 942.501C18.6408 945.056 17.2105 948.58 17.2105 953.076ZM51.5382 993.682C51.5382 999.404 49.6226 1004.05 45.7914 1007.63C42.1134 1011 37.4393 1012.69 31.7691 1012.69C26.0989 1012.69 21.4248 1011 17.7468 1007.63C13.9156 1004.05 12 999.404 12 993.682C12 987.961 13.9156 983.313 17.7468 979.737C21.4248 976.365 26.0989 974.679 31.7691 974.679C37.4393 974.679 42.1134 976.365 45.7914 979.737C49.6226 983.313 51.5382 987.961 51.5382 993.682ZM17.2105 993.682C17.2105 997.82 18.6408 1001.09 21.5014 1003.49C24.2088 1005.79 27.6314 1006.94 31.7691 1006.94C35.9068 1006.94 39.3294 1005.79 42.0368 1003.49C44.8973 1001.09 46.3277 997.82 46.3277 993.682C46.3277 989.545 44.8973 986.275 42.0368 983.874C39.3294 981.576 35.9068 980.426 31.7691 980.426C27.6314 980.426 24.2088 981.576 21.5014 983.874C18.6408 986.275 17.2105 989.545 17.2105 993.682ZM50.9252 1026.05H44.9485C46.7875 1027.43 48.3454 1029.12 49.6226 1031.11C50.8997 1033.1 51.5382 1035.38 51.5382 1037.93C51.5382 1040.48 51.1805 1042.68 50.4654 1044.52C49.7504 1046.36 48.6776 1047.97 47.2472 1049.35C44.1311 1052.51 40.0191 1054.1 34.9107 1054.1H12.613V1048.35H34.7574C38.2822 1048.35 41.0918 1047.35 43.1861 1045.36C45.2805 1043.37 46.3277 1040.79 46.3277 1037.62C46.3277 1034.4 45.255 1031.67 43.1095 1029.42C40.9129 1027.18 38.1034 1026.05 34.6808 1026.05H12.613V1020.31H50.9252V1026.05ZM12.613 1066.95H45.868V1059.13H50.9252V1066.95H64.641V1072.69H50.9252V1081.5H45.868V1072.69H12.613V1066.95ZM18.7429 1116.94C14.2476 1113.87 12 1109.3 12 1103.22C12 1097.7 13.9156 1093.21 17.7468 1089.73C21.527 1086.36 26.201 1084.68 31.7691 1084.68C37.3372 1084.68 42.0113 1086.36 45.7914 1089.73C49.6226 1093.21 51.5382 1097.83 51.5382 1103.6C51.5382 1109.38 49.2649 1113.82 44.7186 1116.94H50.9252V1122.68H12.613V1116.94H18.7429ZM17.2105 1103.99C17.2105 1108.12 18.6408 1111.39 21.5014 1113.79C24.2088 1116.09 27.6314 1117.24 31.7691 1117.24C35.9068 1117.24 39.3294 1116.09 42.0368 1113.79C44.8973 1111.39 46.3277 1108.12 46.3277 1103.99C46.3277 1099.9 44.8973 1096.58 42.0368 1094.03C39.3294 1091.62 35.9068 1090.42 31.7691 1090.42C27.6314 1090.42 24.2088 1091.62 21.5014 1094.03C18.6408 1096.58 17.2105 1099.9 17.2105 1103.99ZM17.2105 1150.32C17.2105 1152.78 17.9001 1154.95 19.2793 1156.84C20.6586 1158.73 22.4465 1160.11 24.643 1160.97V1167.18C20.8629 1166.01 17.8235 1163.86 15.5247 1160.74C13.1749 1157.48 12 1153.59 12 1149.1C12 1143.48 13.9156 1138.91 17.7468 1135.38C21.4759 1131.96 26.15 1130.25 31.7691 1130.25C37.3882 1130.25 42.0622 1131.96 45.7914 1135.38C49.6226 1138.91 51.5382 1143.48 51.5382 1149.1C51.5382 1153.59 50.3633 1157.48 48.0135 1160.74C45.7147 1163.86 42.6752 1166.01 38.8952 1167.18V1160.97C41.0918 1160.11 42.8796 1158.73 44.2589 1156.84C45.6381 1154.95 46.3277 1152.78 46.3277 1150.32C46.3277 1147.87 45.9446 1145.78 45.1784 1144.04C44.4121 1142.36 43.3649 1140.92 42.0368 1139.75C39.2783 1137.25 35.8557 1136 31.7691 1136C27.6825 1136 24.2599 1137.25 21.5014 1139.75C18.6408 1142.3 17.2105 1145.83 17.2105 1150.32ZM12.613 1178.44H45.868V1170.63H50.9252V1178.44H64.641V1184.19H50.9252V1193H45.868V1184.19H12.613V1178.44Z" fill="lightgrey"/>
        <path d="M32.9412 905.127H77.5V861.5H2.5V905.127H10.9804H12.3854L13.1159 906.328L21.9608 920.858L30.8057 906.328L31.5362 905.127H32.9412Z" stroke="lightgrey" stroke-width="5"/>
        <mask id="mask0" mask-type="alpha" maskUnits="userSpaceOnUse" x="0" y="775" width="80" height="80">
          <path fill-rule="evenodd" clip-rule="evenodd" d="M80 793.563C79.9879 790.899 79.4041 788.268 78.2881 785.849C77.1722 783.43 75.55 781.279 73.5313 779.541C70.1436 776.606 65.8101 774.994 61.3281 775H18.6656C14.6891 774.995 10.8154 776.263 7.61061 778.617C4.40581 780.971 2.03796 784.288 0.853149 788.084C0.286561 789.891 -0.00112389 791.773 2.37163e-05 793.666V836.328C-0.00713507 840.812 1.60659 845.147 4.54377 848.534C6.28338 850.555 8.4372 852.179 10.8592 853.294C13.2812 854.41 15.9147 854.992 18.5813 855H61.3281C62.3161 855 63.3025 854.921 64.2781 854.766C66.848 854.359 69.3033 853.415 71.4844 851.997C73.6854 850.568 75.5614 848.692 76.9906 846.491C78.4092 844.31 79.3526 841.854 79.7594 839.284C79.9151 838.309 79.9935 837.322 79.9938 836.334V793.666C80 793.631 80 793.597 80 793.563Z" fill="white"/>
        </mask>
      </g>
      <defs>
        <clipPath id="clip0">
          <rect width="122" height="3000" fill="white"/>
        </clipPath>
      </defs>
    </symbol>
    <symbol id="app-icon" viewBox="0 775 80 80">
      <mask id="mask0" mask-type="alpha" maskUnits="userSpaceOnUse" x="0" y="775" width="80" height="80">
        <path fill-rule="evenodd" clip-rule="evenodd" d="M80 793.563C79.9879 790.899 79.4041 788.268 78.2881 785.849C77.1722 783.43 75.55 781.279 73.5313 779.541V779.541C70.1436 776.606 65.8101 774.994 61.3281 775H18.6656C14.6891 774.995 10.8154 776.263 7.61061 778.617C4.40581 780.971 2.03796 784.288 0.853149 788.084V788.084C0.286561 789.891 -0.00112389 791.773 2.37163e-05 793.666V836.328C-0.00713507 840.812 1.60659 845.147 4.54377 848.534V848.534C6.28338 850.555 8.4372 852.179 10.8592 853.294C13.2812 854.41 15.9147 854.992 18.5813 855H61.3281C62.3161 855 63.3025 854.921 64.2781 854.766C66.848 854.359 69.3033 853.415 71.4844 851.997C73.6854 850.568 75.5614 848.692 76.9906 846.491C78.4092 844.31 79.3526 841.854 79.7594 839.284C79.9151 838.309 79.9935 837.322 79.9938 836.334V793.666C80 793.631 80 793.597 80 793.563Z" fill="white"/>
      </mask>
      <g mask="url(#mask0)">
        <path d="M80 775H0V855H80V775Z" fill="white"/>
        <path fill-rule="evenodd" clip-rule="evenodd" d="M52.8125 827.812L0 850.469V835.344L52.8125 827.812Z" fill="#C9E5AC"/>
        <path fill-rule="evenodd" clip-rule="evenodd" d="M0.03125 850.469V855H18.5625H18.5937L52.8125 827.812L0.03125 850.469Z" fill="#DBFEB7"/>
        <path fill-rule="evenodd" clip-rule="evenodd" d="M52.8125 827.812L32.875 855H18.6562C18.625 855 18.5937 855 18.5625 855L52.8125 827.812Z" fill="white"/>
        <path fill-rule="evenodd" clip-rule="evenodd" d="M52.8125 827.812L42.2813 855H32.875L52.8125 827.812Z" fill="#E7E7E7"/>
        <path fill-rule="evenodd" clip-rule="evenodd" d="M49.8125 855H42.2812L52.8125 827.812L49.8125 855Z" fill="#DBFEB7"/>
        <path fill-rule="evenodd" clip-rule="evenodd" d="M56.8437 855H49.8125L49.875 854.687L52.8125 827.812L56.8437 855Z" fill="#C9E5AC"/>
        <path fill-rule="evenodd" clip-rule="evenodd" d="M64.2812 854.75C63.3125 854.906 62.3437 854.969 61.3437 854.969H56.8437L52.8125 827.812L64.2812 854.75Z" fill="#DBFEB7"/>
        <path fill-rule="evenodd" clip-rule="evenodd" d="M71.5 852C69.375 853.406 66.9062 854.344 64.2812 854.781L52.8125 827.812L71.5 852Z" fill="#C9E5AC"/>
        <path fill-rule="evenodd" clip-rule="evenodd" d="M77 846.469C75.5625 848.656 73.6875 850.531 71.5 851.969L52.8125 827.812L77 846.469Z" fill="#DBFEB7"/>
        <path fill-rule="evenodd" clip-rule="evenodd" d="M79.75 839.281C79.3437 841.906 78.375 844.344 76.9687 846.5L52.8125 827.812L79.75 839.281Z" fill="#C9E5AC"/>
        <path fill-rule="evenodd" clip-rule="evenodd" d="M79.9687 831.844L80 836.344C80 837.344 79.9062 838.344 79.7812 839.281L52.8125 827.812L79.9687 831.844Z" fill="#DBFEB7"/>
        <path fill-rule="evenodd" clip-rule="evenodd" d="M0 835.344V821.312L52.8125 827.812L0 835.344Z" fill="#9AD6E3"/>
        <path fill-rule="evenodd" clip-rule="evenodd" d="M80 824.812V831.844H79.9687L52.8125 827.813L80 824.812Z" fill="#C9E5AC"/>
        <path fill-rule="evenodd" clip-rule="evenodd" d="M80 817.312V824.812L52.8125 827.812L80 817.312Z" fill="#AEDEE8"/>
        <path fill-rule="evenodd" clip-rule="evenodd" d="M80 807.875V817.281L52.8125 827.812L80 807.875Z" fill="#9AD6E3"/>
        <path fill-rule="evenodd" clip-rule="evenodd" d="M80 793.562C80 793.594 80 793.625 80 793.656V807.844L52.8125 827.812L80 793.562Z" fill="#AEDEE8"/>
        <path fill-rule="evenodd" clip-rule="evenodd" d="M75.4687 775L52.8125 827.812L80 793.562V775H75.4687Z" fill="#9AD6E3"/>
        <path fill-rule="evenodd" clip-rule="evenodd" d="M60.3125 775L52.8125 827.812L75.4687 775H60.3125Z" fill="#AEDEE8"/>
        <path fill-rule="evenodd" clip-rule="evenodd" d="M60.3125 775L52.8125 827.812L46.2812 775H60.3125Z" fill="#9AD6E3"/>
        <path fill-rule="evenodd" clip-rule="evenodd" d="M52.8125 827.812L31.2188 775H46.2812L52.8125 827.812Z" fill="#AEDEE8"/>
        <path fill-rule="evenodd" clip-rule="evenodd" d="M31.2187 775H18.6562H12.4375L52.8125 827.812L31.2187 775Z" fill="#9AD6E3"/>
        <path fill-rule="evenodd" clip-rule="evenodd" d="M12.4375 775H0V787.437L52.8125 827.812L12.4375 775Z" fill="#AEDEE8"/>
        <path fill-rule="evenodd" clip-rule="evenodd" d="M52.8125 827.812L0.03125 806.25L0 787.469L52.8125 827.812Z" fill="#9AD6E3"/>
        <path fill-rule="evenodd" clip-rule="evenodd" d="M52.8125 827.812L0 821.312V806.25L52.8125 827.812Z" fill="#AEDEE8"/>
        <path d="M74.9062 819.375C74.9062 819.406 74.9062 819.406 74.9062 819.375C73.875 821.594 72.7812 823.781 71.6562 825.906C70.8437 827.437 69.9687 828.937 69.0937 830.406C68.3437 831.625 67.5937 832.781 66.8125 833.906C66.0937 834.937 65.3125 835.969 64.5312 836.937C63.75 837.906 62.9062 838.844 62.0625 839.75C61.8125 840 61.5937 840.25 61.3437 840.5C60.625 841.187 59.9062 841.875 59.1875 842.5C58 843.531 56.8125 844.5 55.5625 845.437C53.9687 846.625 52.3125 847.719 50.625 848.719C48.2812 850.125 45.8437 851.344 43.3437 852.406C41.0625 853.406 38.7187 854.25 36.3125 855H61.3125C62.3125 855 63.3125 854.906 64.25 854.781C66.875 854.375 69.3125 853.406 71.4687 852C73.6562 850.562 75.5312 848.687 76.9687 846.5C78.375 844.375 79.3125 841.906 79.75 839.281C79.9062 838.312 79.9687 837.344 79.9687 836.344V807.906C78.3437 811.719 76.6875 815.594 74.9062 819.375Z" fill="#8749A9"/>
        <path d="M77.7187 825.125C76.7187 827.187 75.6875 829.187 74.5937 831.125C73.6562 832.781 72.6875 834.406 71.6875 835.937C70.7187 837.406 69.7187 838.781 68.6875 840.094C67.625 841.437 66.4687 842.719 65.2812 843.906C65.25 843.937 65.25 843.937 65.2187 843.969C63.9375 845.219 62.625 846.406 61.25 847.5C59.6562 848.781 58 849.969 56.3125 851.062C54.2187 852.406 52.0625 853.594 49.8438 854.687C49.625 854.781 49.4062 854.906 49.1875 855H61.3125C62.3125 855 63.3125 854.906 64.25 854.781C66.875 854.375 69.3125 853.406 71.4687 852C73.6562 850.562 75.5312 848.687 76.9687 846.5C78.375 844.375 79.3125 841.906 79.75 839.281C79.9062 838.312 79.9687 837.344 79.9687 836.344V820.25C79.25 821.875 78.5 823.531 77.7187 825.125Z" fill="#965FB3"/>
        <path d="M79.9687 831.844C78.875 833.938 77.6875 836 76.4687 837.938C75.2812 839.813 74.0312 841.594 72.7187 843.25C71.6562 844.594 70.5312 845.844 69.3437 847C69.0312 847.313 68.6875 847.625 68.3437 847.938C66.6875 849.469 64.9687 850.906 63.1875 852.188C61.8125 853.188 60.4062 854.125 58.9688 855H79.9687V831.844C79.9687 831.812 80 831.812 79.9687 831.844Z" fill="#A576BE"/>
        <path d="M64.375 801.594C64.1875 796.719 62.4062 792.875 59.0312 790.156C58.8125 790 58.5937 789.812 58.375 789.656C57.0313 788.687 55.4687 787.906 53.6875 787.312C51.9062 786.719 49.9062 786.281 47.7187 786.063C46.3125 785.906 44.8125 785.844 43.2187 785.844C40.5937 785.844 38.1562 786.031 35.9062 786.437C32.3125 787.062 29.25 788.219 26.75 789.875C26.0625 790.344 25.4375 790.812 24.8437 791.344C22.0625 793.875 20.6562 797.187 20.6562 801.219C20.6562 802.156 20.6875 802.844 20.7188 803.312H29.375V802.312C29.375 800.875 29.6875 799.594 30.3125 798.406C30.8125 797.437 31.5 796.594 32.4062 795.781C33.8437 794.531 36 793.719 38.8125 793.344C39.9062 793.219 41.0937 793.125 42.4062 793.125C44.9062 793.125 47.0312 793.375 48.7812 793.844C49.625 794.062 50.3437 794.344 51 794.687C51.6562 795.031 52.2187 795.406 52.6562 795.844C54.3437 797.406 55.2812 799.625 55.5 802.406C55.5312 802.781 55.5312 803.187 55.5312 803.594V810.094H55.25C53.75 810.094 52.3125 810.125 50.9062 810.156C49.1562 810.219 47.4687 810.281 45.8437 810.406C43.7812 810.562 41.8125 810.75 39.9687 811C37.4687 811.344 35.1562 811.781 33.0312 812.281C32.8437 812.312 32.6875 812.375 32.5 812.406C30.6562 812.875 29 813.437 27.4688 814.062C26.0938 814.625 24.8437 815.312 23.7812 816.125C21.1875 818.031 19.4375 820.594 18.5938 823.781C18.2188 825.281 18 826.906 18 828.656C18 830.219 18.125 831.656 18.4063 832.969C18.75 834.75 19.3437 836.281 20.1875 837.594C21.0312 838.906 22.0938 839.969 23.4063 840.781C23.4688 840.812 23.5 840.844 23.5625 840.875C26.375 842.562 29.5 843.625 32.9063 844.031C33.5312 844.125 34.1875 844.156 34.8437 844.187C37.4062 844.031 39.9062 843.531 42.2812 842.719C44.4687 841.969 46.5937 840.937 48.625 839.656C49.8437 838.875 51.0312 838.031 52.1562 837.094C52.875 836.531 53.5625 835.906 54.2187 835.25C54.6875 834.812 55.1562 834.344 55.5937 833.875C55.9687 833.5 56.3125 833.094 56.6562 832.719C56.9687 832.375 57.2812 832 57.5937 831.625C57.9062 831.25 58.1875 830.875 58.5 830.5C58.8437 830.062 59.1562 829.625 59.4687 829.156C59.875 828.594 60.2812 828 60.6562 827.375C61.2187 826.5 61.75 825.562 62.2812 824.625C62.3125 824.594 62.3125 824.562 62.3437 824.531L62.375 824.5L62.5 824.281C62.5 824.25 62.5312 824.219 62.5312 824.219C63.1875 822.969 63.6875 821.594 64 820.187V820.156C64.25 819.062 64.375 817.937 64.375 816.781V802.375C64.4062 802.125 64.4062 801.844 64.375 801.594ZM54.1562 828.219C54.125 828.281 54.0937 828.344 54.0625 828.406C54.0312 828.469 54 828.531 53.9687 828.562C53.9375 828.625 53.9062 828.656 53.875 828.719C53.8437 828.781 53.8125 828.844 53.7812 828.906C53.75 828.969 53.6875 829.062 53.6562 829.125C53.5937 829.219 53.5312 829.344 53.4687 829.437C53.3437 829.625 53.2187 829.812 53.0937 830C52.7812 830.469 52.4375 830.906 52.0625 831.312C51.7187 831.719 51.3437 832.094 50.9375 832.469C50.3125 833.062 49.625 833.594 48.875 834.062C48.25 834.469 47.5625 834.844 46.875 835.156C45.4687 835.781 44.0312 836.25 42.5625 836.531C41.3437 836.781 40.0937 836.875 38.8437 836.875C36.9375 836.875 35.25 836.687 33.8125 836.344C32.4062 836 31.2187 835.5 30.2812 834.844C29.1562 834.062 28.3437 832.969 27.875 831.625C27.5 830.594 27.3125 829.406 27.3125 828.031C27.3125 826.906 27.5 825.844 27.8437 824.906C28.625 822.812 30.2812 821.187 32.7812 820.094C32.9062 820.031 33.0312 820 33.1562 819.937C33.5625 819.781 34 819.625 34.4375 819.469C36.0625 818.937 37.9688 818.531 40.1875 818.187C41.7188 817.969 43.375 817.781 45.1562 817.625C46.3125 817.531 47.5312 817.469 48.8125 817.406C49.7812 817.375 50.8125 817.344 51.875 817.312C52.8125 817.281 53.7812 817.281 54.7812 817.281H55.5625V821.625C55.5625 822.125 55.5312 822.594 55.5 823.062V823.094C55.4062 824.187 55.2187 825.25 54.9375 826.219C54.8125 826.594 54.6875 827 54.5625 827.344V827.375C54.5 827.531 54.4375 827.719 54.3437 827.875C54.25 828.031 54.1875 828.125 54.1562 828.219Z" fill="#691B93"/>
      </g>
    </symbol>
    <symbol id="cart" viewBox="0 691 80 80">
      <path d="M34 758.6C37.3137 758.6 40 755.914 40 752.6C40 749.286 37.3137 746.6 34 746.6C30.6863 746.6 28 749.286 28 752.6C28 755.914 30.6863 758.6 34 758.6Z" fill="#691B93"/>
      <path d="M60 758.6C63.3137 758.6 66 755.914 66 752.6C66 749.286 63.3137 746.6 60 746.6C56.6863 746.6 54 749.286 54 752.6C54 755.914 56.6863 758.6 60 758.6Z" fill="#691B93"/>
      <path d="M2 704H19.1L33.9 735H60.4L70.8 713H78.2L64.8 741H29.5L14.7 710H2V704Z" fill="#691B93"/>
    </symbol>
    <symbol id="logo-lockup" viewBox="0 612 122 75">
      <path d="M120 649.5C120 670.044 103.48 686.729 83 686.997V687H11C5.47715 687 1 682.523 1 677V622C1 616.477 5.47715 612 11 612H83V612.003C103.48 612.271 120 628.956 120 649.5Z" fill="#691B93"/>
      <path d="M20.3112 659.882V653.935C20.3112 652.204 19.7148 650.847 18.5402 649.902C17.3602 648.953 15.6056 648.471 13.3274 648.471C11.0692 648.471 9.24007 648.918 7.89459 649.8C6.56003 650.677 5.88365 651.937 5.88365 653.546C5.88365 653.857 5.89092 654.088 5.90729 654.233H8.7437V653.9C8.7437 653.051 9.08189 652.326 9.74735 651.746C10.4092 651.167 11.5183 650.875 13.0438 650.875C14.6638 650.875 15.8038 651.175 16.4311 651.766C17.0602 652.358 17.3802 653.22 17.3802 654.326V656.468H17.2893C13.311 656.468 10.2292 656.911 8.12733 657.788C6.05275 658.651 5 660.271 5 662.602C5 664.54 5.61637 665.895 6.83094 666.628C7.92732 667.29 9.18189 667.659 10.5601 667.731C14.7183 667.499 18.3239 664.406 20.3112 659.882ZM8.07278 662.424C8.07278 661.042 8.86188 660.091 10.4183 659.597C11.9419 659.113 14.2547 658.868 17.2911 658.868H17.382V660.302C17.382 661.377 17.1147 662.304 16.5875 663.06C16.0602 663.813 15.3711 664.39 14.5347 664.771C13.702 665.151 12.8074 665.346 11.8801 665.346C10.6401 665.346 9.68735 665.12 9.05098 664.675C8.40006 664.222 8.07278 663.466 8.07278 662.424Z" fill="white"/>
      <path d="M108.09 667.455V651.673H104.381V649.273H108.09V642.764H110.818V649.273H115V651.673H110.818V667.455H108.09Z" fill="white"/>
      <path d="M101.509 642.655V646.218H98.5635V642.655H101.509ZM98.6726 649.273H101.4V667.455H98.6726V649.273Z" fill="white"/>
      <path d="M93.9468 658.378V642H91.2195V652.218C89.7413 650.06 87.6322 648.982 84.8921 648.982C82.1521 648.982 79.9593 649.891 78.3102 651.709C76.7102 653.504 75.9102 655.722 75.9102 658.364C75.9102 661.006 76.7102 663.224 78.3102 665.019C79.7793 666.64 81.6375 667.537 83.8776 667.711C88.3667 667.328 92.1795 663.606 93.9468 658.378ZM78.6375 658.364C78.6375 656.4 79.2066 654.777 80.3466 653.491C81.5593 652.133 83.1339 651.455 85.0739 651.455C87.0376 651.455 88.5886 652.133 89.7286 653.491C90.8195 654.777 91.365 656.4 91.365 658.364C91.365 660.328 90.8195 661.951 89.7286 663.237C88.5886 664.595 87.0376 665.273 85.0739 665.273C83.1339 665.273 81.5593 664.595 80.3466 663.237C79.2066 661.951 78.6375 660.328 78.6375 658.364Z" fill="white"/>
      <path d="M70.2371 651.018C69.5826 650.34 68.8189 649.831 67.9462 649.491C67.1898 649.197 66.3043 649.031 65.2934 648.991C61.3861 649.827 58.1115 653.215 56.4551 657.839V667.455H59.1824V656.982C59.1824 655.358 59.7151 654.024 60.7824 652.982C61.8497 651.964 63.1461 651.455 64.6734 651.455C66.1771 651.455 67.4007 651.951 68.3462 652.946C69.2917 653.94 69.7644 655.273 69.7644 656.946V667.455H72.4917V656.873C72.4917 654.449 71.739 652.497 70.2371 651.018Z" fill="white"/>
      <path d="M44.3098 665.273C46.7589 665.273 48.5153 664.255 49.5826 662.218H52.5644C51.9335 663.868 50.9335 665.2 49.5644 666.218C48.1953 667.237 46.4316 667.746 44.2734 667.746C41.5333 667.746 39.3042 666.837 37.5824 665.018C35.9096 663.249 35.0732 661.031 35.0732 658.364C35.0732 655.673 35.8733 653.455 37.4733 651.709C39.1697 649.891 41.377 648.982 44.0916 648.982C46.8062 648.982 49.0135 649.891 50.7099 651.709C52.3099 653.455 53.1099 655.673 53.1099 658.364V659.455H37.8733C38.0678 661.127 38.7333 662.509 39.8733 663.6C41.037 664.715 42.5152 665.273 44.3098 665.273ZM44.0916 651.455C42.4188 651.455 41.0133 651.976 39.8733 653.018C38.806 654.013 38.1515 655.309 37.9097 656.909H50.2735C50.0317 655.309 49.3771 654.013 48.3098 653.018C47.1698 651.976 45.7643 651.455 44.0916 651.455Z" fill="white"/>
      <path d="M26.673 667.455V651.673H22.9639V649.273H26.673V642.764H29.4003V649.273H33.5822V651.673H29.4003V667.455H26.673Z" fill="white"/>
    </symbol>
    <symbol id="hamburger" viewBox="0 528 80 80">
      <rect x="16" y="584" width="49" height="9" fill="#691B93"/>
      <path fill-rule="evenodd" clip-rule="evenodd" d="M16 562H20L23 567L26 562H38V565H33V567H36.5V569H33V571H45V562H49L52 567V562H58V570H62V562H65V568.5V569.5V572C65 573.105 64.1046 574 63 574H57C55.8954 574 55 573.105 55 572V574H52L48 569V574H45H27V569L23 574L19 569V574H16V562Z" fill="#691B93"/>
      <rect x="16" y="543" width="49" height="9" fill="#691B93"/>
    </symbol>
    <symbol id="instagram" viewBox="0 440 90 84">
      <path d="M5 460C5 448.954 13.9543 440 25 440H79C84.5228 440 89 444.477 89 450V484C89 506.091 71.0914 524 49 524H15C9.47715 524 5 519.523 5 514V460Z" fill="#691B93"/>
      <path d="M45.0063 461.507C51.6829 461.507 52.4769 461.532 55.1088 461.651C57.5469 461.764 58.8722 462.17 59.7537 462.514C60.9227 462.97 61.7542 463.508 62.6294 464.383C63.5046 465.258 64.0485 466.09 64.4986 467.259C64.8425 468.14 65.2488 469.466 65.3613 471.904C65.4801 474.542 65.5051 475.33 65.5051 482.006C65.5051 488.683 65.4801 489.477 65.3613 492.109C65.2488 494.547 64.8425 495.872 64.4986 496.754C64.0423 497.923 63.5046 498.754 62.6294 499.629C61.7542 500.505 60.9227 501.049 59.7537 501.499C58.8722 501.842 57.5469 502.249 55.1088 502.361C52.4706 502.48 51.6829 502.505 45.0063 502.505C38.3296 502.505 37.5356 502.48 34.9037 502.361C32.4656 502.249 31.1403 501.842 30.2588 501.499C29.0898 501.042 28.2583 500.505 27.3831 499.629C26.5079 498.754 25.964 497.923 25.5139 496.754C25.17 495.872 24.7637 494.547 24.6512 492.109C24.5324 489.471 24.5074 488.683 24.5074 482.006C24.5074 475.33 24.5324 474.536 24.6512 471.904C24.7637 469.466 25.17 468.14 25.5139 467.259C25.9702 466.09 26.5079 465.258 27.3831 464.383C28.2583 463.508 29.0898 462.964 30.2588 462.514C31.1403 462.17 32.4656 461.764 34.9037 461.651C37.5356 461.532 38.3296 461.507 45.0063 461.507ZM45.0063 457C38.2171 457 37.3606 457.031 34.6974 457.15C32.0343 457.269 30.2151 457.694 28.6272 458.313C26.983 458.95 25.5889 459.807 24.2011 461.195C22.807 462.589 21.9505 463.983 21.3128 465.627C20.6939 467.215 20.2688 469.034 20.15 471.697C20.0313 474.361 20 475.217 20 482.006C20 488.795 20.0313 489.652 20.15 492.315C20.2688 494.978 20.6939 496.797 21.3128 498.385C21.9505 500.03 22.807 501.424 24.1948 502.811C25.5826 504.199 26.9767 505.056 28.6209 505.693C30.2088 506.312 32.028 506.737 34.6912 506.856C37.3606 506.975 38.2108 507.006 45 507.006C51.7892 507.006 52.6457 506.975 55.3088 506.856C57.972 506.737 59.7912 506.312 61.3791 505.693C63.0233 505.056 64.4174 504.199 65.8052 502.811C67.1931 501.424 68.0495 500.03 68.6872 498.385C69.3061 496.797 69.7312 494.978 69.85 492.315C69.9687 489.646 70 488.795 70 482.006C70 475.217 69.9687 474.361 69.85 471.697C69.7312 469.034 69.3061 467.215 68.6872 465.627C68.0495 463.983 67.1931 462.589 65.8052 461.201C64.4236 459.807 63.0295 458.95 61.3853 458.313C59.7975 457.694 57.9782 457.269 55.3151 457.15C52.6519 457.031 51.7955 457 45.0063 457Z" fill="white"/>
      <path d="M45.0062 469.166C37.917 469.166 32.1655 474.917 32.1655 482.006C32.1655 489.096 37.917 494.847 45.0062 494.847C52.0955 494.847 57.847 489.096 57.847 482.006C57.847 474.917 52.0955 469.166 45.0062 469.166ZM45.0062 490.34C40.4051 490.34 36.6729 486.607 36.6729 482.006C36.6729 477.405 40.4051 473.673 45.0062 473.673C49.6074 473.673 53.3396 477.405 53.3396 482.006C53.3396 486.607 49.6074 490.34 45.0062 490.34Z" fill="white"/>
      <path d="M58.3533 471.66C60.0106 471.66 61.354 470.316 61.354 468.659C61.354 467.002 60.0106 465.658 58.3533 465.658C56.696 465.658 55.3525 467.002 55.3525 468.659C55.3525 470.316 56.696 471.66 58.3533 471.66Z" fill="white"/>
      <path d="M45.0063 461.507C51.6829 461.507 52.4769 461.532 55.1088 461.651C57.5469 461.764 58.8722 462.17 59.7537 462.514C60.9227 462.97 61.7542 463.508 62.6294 464.383C63.5046 465.258 64.0485 466.09 64.4986 467.259C64.8425 468.14 65.2488 469.466 65.3613 471.904C65.4801 474.542 65.5051 475.33 65.5051 482.006C65.5051 488.683 65.4801 489.477 65.3613 492.109C65.2488 494.547 64.8425 495.872 64.4986 496.754C64.0423 497.923 63.5046 498.754 62.6294 499.629C61.7542 500.505 60.9227 501.049 59.7537 501.499C58.8722 501.842 57.5469 502.249 55.1088 502.361C52.4706 502.48 51.6829 502.505 45.0063 502.505C38.3296 502.505 37.5356 502.48 34.9037 502.361C32.4656 502.249 31.1403 501.842 30.2588 501.499C29.0898 501.042 28.2583 500.505 27.3831 499.629C26.5079 498.754 25.964 497.923 25.5139 496.754C25.17 495.872 24.7637 494.547 24.6512 492.109C24.5324 489.471 24.5074 488.683 24.5074 482.006C24.5074 475.33 24.5324 474.536 24.6512 471.904C24.7637 469.466 25.17 468.14 25.5139 467.259C25.9702 466.09 26.5079 465.258 27.3831 464.383C28.2583 463.508 29.0898 462.964 30.2588 462.514C31.1403 462.17 32.4656 461.764 34.9037 461.651C37.5356 461.532 38.3296 461.507 45.0063 461.507ZM45.0063 457C38.2171 457 37.3606 457.031 34.6974 457.15C32.0343 457.269 30.2151 457.694 28.6272 458.313C26.983 458.95 25.5889 459.807 24.2011 461.195C22.807 462.589 21.9505 463.983 21.3128 465.627C20.6939 467.215 20.2688 469.034 20.15 471.697C20.0313 474.361 20 475.217 20 482.006C20 488.795 20.0313 489.652 20.15 492.315C20.2688 494.978 20.6939 496.797 21.3128 498.385C21.9505 500.03 22.807 501.424 24.1948 502.811C25.5826 504.199 26.9767 505.056 28.6209 505.693C30.2088 506.312 32.028 506.737 34.6912 506.856C37.3606 506.975 38.2108 507.006 45 507.006C51.7892 507.006 52.6457 506.975 55.3088 506.856C57.972 506.737 59.7912 506.312 61.3791 505.693C63.0233 505.056 64.4174 504.199 65.8052 502.811C67.1931 501.424 68.0495 500.03 68.6872 498.385C69.3061 496.797 69.7312 494.978 69.85 492.315C69.9687 489.646 70 488.795 70 482.006C70 475.217 69.9687 474.361 69.85 471.697C69.7312 469.034 69.3061 467.215 68.6872 465.627C68.0495 463.983 67.1931 462.589 65.8052 461.201C64.4236 459.807 63.0295 458.95 61.3853 458.313C59.7975 457.694 57.9782 457.269 55.3151 457.15C52.6519 457.031 51.7955 457 45.0063 457Z" fill="white"/>
      <path d="M45.0062 469.166C37.917 469.166 32.1655 474.917 32.1655 482.006C32.1655 489.096 37.917 494.847 45.0062 494.847C52.0955 494.847 57.847 489.096 57.847 482.006C57.847 474.917 52.0955 469.166 45.0062 469.166ZM45.0062 490.34C40.4051 490.34 36.6729 486.607 36.6729 482.006C36.6729 477.405 40.4051 473.673 45.0062 473.673C49.6074 473.673 53.3396 477.405 53.3396 482.006C53.3396 486.607 49.6074 490.34 45.0062 490.34Z" fill="white"/>
      <path d="M58.3533 471.66C60.0106 471.66 61.354 470.316 61.354 468.659C61.354 467.002 60.0106 465.658 58.3533 465.658C56.696 465.658 55.3525 467.002 55.3525 468.659C55.3525 470.316 56.696 471.66 58.3533 471.66Z" fill="white"/>
    </symbol>
    <symbol id="linkedin" viewBox="0 352 90 84">
      <path d="M5 372C5 360.954 13.9543 352 25 352H79C84.5228 352 89 356.477 89 362V396C89 418.091 71.0914 436 49 436H15C9.47715 436 5 431.523 5 426V372Z" fill="#691B93"/>
      <path d="M59.9605 374H28.0345C25.8048 374 24 375.81 24 378.044V410.42C24 412.655 25.8048 414.465 28.0345 414.465H59.9655C62.1952 414.465 64 412.655 64 410.42V378.044C63.995 375.81 62.1902 374 59.9605 374ZM36.8334 406.021H31.4541V388.708H36.8334V406.021ZM34.1087 386.583C32.4089 386.583 31.3141 385.379 31.3141 383.894C31.3141 382.374 32.4489 381.204 34.1787 381.204C35.9135 381.204 36.9734 382.374 37.0084 383.894C37.0084 385.384 35.9135 386.583 34.1087 386.583ZM56.4809 406.021H51.0966V396.427C51.0966 394.197 50.3167 392.673 48.372 392.673C46.8871 392.673 46.0023 393.698 45.6123 394.692C45.4723 395.047 45.4373 395.542 45.4373 396.037V406.021H40.053V394.232C40.053 392.073 39.983 390.268 39.913 388.708H44.5874L44.8374 391.118H44.9424C45.6523 389.983 47.3871 388.323 50.2867 388.323C53.8263 388.323 56.4809 390.693 56.4809 395.792V406.021Z" fill="white"/>
      <path d="M59.9605 374H28.0345C25.8048 374 24 375.81 24 378.044V410.42C24 412.655 25.8048 414.465 28.0345 414.465H59.9655C62.1952 414.465 64 412.655 64 410.42V378.044C63.995 375.81 62.1902 374 59.9605 374ZM36.8334 406.021H31.4541V388.708H36.8334V406.021ZM34.1087 386.583C32.4089 386.583 31.3141 385.379 31.3141 383.894C31.3141 382.374 32.4489 381.204 34.1787 381.204C35.9135 381.204 36.9734 382.374 37.0084 383.894C37.0084 385.384 35.9135 386.583 34.1087 386.583ZM56.4809 406.021H51.0966V396.427C51.0966 394.197 50.3167 392.673 48.372 392.673C46.8871 392.673 46.0023 393.698 45.6123 394.692C45.4723 395.047 45.4373 395.542 45.4373 396.037V406.021H40.053V394.232C40.053 392.073 39.983 390.268 39.913 388.708H44.5874L44.8374 391.118H44.9424C45.6523 389.983 47.3871 388.323 50.2867 388.323C53.8263 388.323 56.4809 390.693 56.4809 395.792V406.021Z" fill="white"/>
    </symbol>
    <symbol id="facebook" viewBox="0 264 90 84">
      <path d="M5 284C5 272.954 13.9543 264 25 264H79C84.5228 264 89 268.477 89 274V308C89 330.091 71.0914 348 49 348H15C9.47715 348 5 343.523 5 338V284Z" fill="#691B93"/>
      <path d="M56.9584 309.029L58.3954 299.688H49.3943V293.63C49.3943 291.076 50.6549 288.587 54.6852 288.587H58.7808V280.63C58.7808 280.63 55.0641 280 51.5106 280C44.0902 280 39.2435 284.472 39.2435 292.571V299.688H31V309.029H39.2435V331.61C40.8961 331.87 42.5879 332 44.3189 332C46.0499 332 47.7417 331.863 49.3943 331.61V309.029H56.9584Z" fill="white"/>
    </symbol>
    <symbol id="fb-m" viewBox="0 176 90 84">
      <path d="M5 196C5 184.954 13.9543 176 25 176H79C84.5228 176 89 180.477 89 186V220C89 242.091 71.0914 260 49 260H15C9.47715 260 5 255.523 5 250V196Z" fill="#691B93"/>
      <path fill-rule="evenodd" clip-rule="evenodd" d="M18 217.221C18 202.73 29.3523 192 44.0003 192C58.6484 192 70.0007 202.73 70.0007 217.221C70.0007 231.712 58.6484 242.442 44.0003 242.442C41.3689 242.442 38.8421 242.096 36.4723 241.442C36.0119 241.317 35.5254 241.354 35.0859 241.547L29.9277 243.823C28.578 244.414 27.0556 243.457 27.0086 241.981L26.8673 237.357C26.8464 236.786 26.59 236.258 26.1663 235.876C21.1075 231.351 18 224.801 18 217.221ZM36.0275 212.481L28.3896 224.597C27.6519 225.759 29.0854 227.072 30.1787 226.24L38.3816 220.014C38.9362 219.596 39.7 219.591 40.2597 220.009L46.3335 224.566C48.154 225.931 50.7593 225.45 51.973 223.525L59.6109 211.409C60.3485 210.247 58.9151 208.934 57.8217 209.766L49.6188 215.991C49.0643 216.41 48.3005 216.415 47.7407 215.997L41.667 211.44C39.8465 210.075 37.2412 210.556 36.0275 212.481Z" fill="white"/>
    </symbol>
    <symbol id="twitter" viewBox="0 88 90 84">
      <path d="M5 108C5 96.9543 13.9543 88 25 88H79C84.5228 88 89 92.4772 89 98V132C89 154.091 71.0914 172 49 172H15C9.47715 172 5 167.523 5 162V108Z" fill="#691B93"/>
      <path d="M35.3585 151.258C54.9795 151.258 65.7097 135.003 65.7097 120.907C65.7097 120.445 65.7032 119.984 65.6772 119.529C67.7569 118.021 69.5702 116.143 71 114.004C69.0892 114.856 67.029 115.428 64.8713 115.681C67.0745 114.362 68.7643 112.269 69.5637 109.78C67.5034 111.002 65.2222 111.892 62.7915 112.367C60.8418 110.3 58.0731 109 55.0055 109C49.1172 109 44.3338 113.777 44.3338 119.665C44.3338 120.504 44.4248 121.316 44.6133 122.096C35.7484 121.647 27.8844 117.403 22.6265 110.95C21.7102 112.523 21.1837 114.355 21.1837 116.312C21.1837 120.01 23.0685 123.279 25.9281 125.189C24.1799 125.137 22.5356 124.657 21.0992 123.857C21.0992 123.903 21.0992 123.948 21.0992 123.994C21.0992 129.16 24.7778 133.476 29.6587 134.451C28.7618 134.698 27.8194 134.828 26.8445 134.828C26.1556 134.828 25.4862 134.763 24.8363 134.633C26.1946 138.87 30.1331 141.957 34.7995 142.042C31.147 144.902 26.5456 146.611 21.5477 146.611C20.6898 146.611 19.8384 146.559 19 146.461C23.7249 149.49 29.3337 151.258 35.3585 151.258Z" fill="white"/>
    </symbol>
    <symbol id="email" viewBox="0 0 90 84">
      <path d="M5 20C5 8.9543 13.9543 0 25 0H79C84.5228 0 89 4.47715 89 10V44C89 66.0914 71.0914 84 49 84H15C9.47715 84 5 79.5229 5 74V20Z" fill="#691B93"/>
      <path d="M20.8051 25L44 45.4286L67.1949 25H20.8051ZM18 27.4762V55.875L33.5729 41.1919L18 27.4762ZM70 27.4762L54.4271 41.1919L70 55.875V27.4762ZM36.3586 43.6488L20.689 58.4286H67.311L51.6414 43.6488L45.2188 49.2976C44.8808 49.5915 44.4479 49.7534 44 49.7534C43.5521 49.7534 43.1193 49.5915 42.7812 49.2976L36.3586 43.6488Z" fill="white"/>
    </symbol>
  </defs>
  <!-- define view locations for each icon -->
  <view id="v-off" viewbox="0 1993 40 40" preserveAspectRatio="xMinYMid meet"/>
  <view id="v-on" viewbox="0 1949 40 40" preserveAspectRatio="xMinYMid meet"/>
  <view id="v-link" viewbox="0 1861 84 84" preserveAspectRatio="xMinYMid meet"/>
  <view id="v-rna" viewbox="0 1773 84 84" preserveAspectRatio="xMinYMid meet"/>
  <view id="v-help" viewBox="0 1729 40 40" preserveAspectRatio="xMinYMid meet"/>
  <view id="v-ribbon" viewBox="0 1645 60 80" preserveAspectRatio="xMinYMid meet"/>
  <view id="v-umbrella" viewBox="0 1557 84 84" preserveAspectRatio="xMinYMid meet"/>
  <view id="v-watch" viewBox="0 1469 84 84" preserveAspectRatio="xMinYMid meet"/>
  <view id="v-close" viewBox="0 1385 80 80" preserveAspectRatio="xMinYMid meet"/>
  <view id="v-check" viewBox="0 1297 84 84" preserveAspectRatio="xMinYMid meet"/>
  <view id="v-favicon" viewBox="0 1213 80 80" preserveAspectRatio="xMinYMid meet"/>
  <view id="v-speech-bubble" viewBox="0 859 81 350" preserveAspectRatio="xMinYMid meet"/>
  <view id="v-app-icon" viewBox="0 775 80 80" preserveAspectRatio="xMinYMid meet"/>
  <view id="v-cart" viewBox="0 691 80 80" preserveAspectRatio="xMinYMid meet"/>
  <view id="v-logo-lockup" viewBox="0 612 122 75" preserveAspectRatio="xMinYMid meet"/>
  <view id="v-hamburger" viewBox="0 528 80 80" preserveAspectRatio="xMinYMid meet"/>
  <view id="v-instagram" viewBox="0 440 90 84" preserveAspectRatio="xMinYMid meet"/>
  <view id="v-linkedin" viewBox="0 352 90 84" preserveAspectRatio="xMinYMid meet"/>
  <view id="v-facebook" viewBox="0 264 90 84" preserveAspectRatio="xMinYMid meet"/>
  <view id="v-fb-m" viewBox="0 176 90 84" preserveAspectRatio="xMinYMid meet"/>
  <view id="v-twitter" viewBox="0 88 90 84" preserveAspectRatio="xMinYMid meet"/>
  <view id="v-email" viewBox="0 0 90 84" preserveAspectRatio="xMinYMid meet"/>

  <use href="#off" x="0" y="1993" width="40" height="40" id="o"/>
  <use href="#on" x="0" y="1949" width="40" height="40" id="of"/>
  <use href="#link" x="0" y="1861" width="84" height="84" id="lk"/>
  <use href="#rna" x="0" y="1773" width="84" height="84" id="rn"/>
  <use href="#help" x="0" y="1729" width="40" height="40" id="hp"/>
  <use href="#ribbon" x="0" y="1645" width="60" height="80" id="rb"/> 
  <use href="#umbrella" x="0" y="1557" width="84" height="84" id="um"/>
  <use href="#watch" x="0" y="1469" width="84" height="84" id="wa"/>
  <use href="#close" x="0" y="1385" width="80" height="80" id="cl"/>
  <use href="#check" x="0" y="1297" width="84" height="84" id="ch"/>
  <use href="#favicon" x="0" y="1213" width="80" height="80" id="fi"/>
  <use href="#speech-bubble" x="0" y="859" width="81" height="350" id="sb"/>
  <use href="#app-icon" x="0" y="775" width="80" height="80" id="ai"/>
  <use href="#cart" x="0" y="691" width="80" height="80" id="ct"/>
  <use href="#logo-lockup" x="0" y="612" width="122" height="75" id="ll"/>
  <use href="#hamburger" x="0" y="528" width="80" height="80" id="hb"/>
  <use href="#instagram" x="0" y="440" width="90" height="84" id="ig"/>
  <use href="#linkedin" x="0" y="352" width="90" height="84" id="li"/>
	<use href="#facebook" x="0" y="264" width="90" height="84" id="fb"/>
  <use href="#fb-m" x="0" y="176" width="90" height="84" id="mg"/>
  <use href="#twitter" x="0" y="88" width="90" height="84" id="tw"/>
  <use href="#email" x="0" y="0" width="90" height="84" id="em"/>
</svg>