<svg xmlns="http://www.w3.org/2000/svg" xmlns:xlink="http://www.w3.org/1999/xlink">
  <defs>
    <symbol id="logo-lockup" viewBox="0 612 122 75">
      <path d="M120 649.5C120 670.044 103.48 686.729 83 686.997V687H11C5.47715 687 1 682.523 1 677V622C1 616.477 5.47715 612 11 612H83V612.003C103.48 612.271 120 628.956 120 649.5Z" fill="#691B93"/>
      <path d="M20.3112 659.882V653.935C20.3112 652.204 19.7148 650.847 18.5402 649.902C17.3602 648.953 15.6056 648.471 13.3274 648.471C11.0692 648.471 9.24007 648.918 7.89459 649.8C6.56003 650.677 5.88365 651.937 5.88365 653.546C5.88365 653.857 5.89092 654.088 5.90729 654.233H8.7437V653.9C8.7437 653.051 9.08189 652.326 9.74735 651.746C10.4092 651.167 11.5183 650.875 13.0438 650.875C14.6638 650.875 15.8038 651.175 16.4311 651.766C17.0602 652.358 17.3802 653.22 17.3802 654.326V656.468H17.2893C13.311 656.468 10.2292 656.911 8.12733 657.788C6.05275 658.651 5 660.271 5 662.602C5 664.54 5.61637 665.895 6.83094 666.628C7.92732 667.29 9.18189 667.659 10.5601 667.731C14.7183 667.499 18.3239 664.406 20.3112 659.882ZM8.07278 662.424C8.07278 661.042 8.86188 660.091 10.4183 659.597C11.9419 659.113 14.2547 658.868 17.2911 658.868H17.382V660.302C17.382 661.377 17.1147 662.304 16.5875 663.06C16.0602 663.813 15.3711 664.39 14.5347 664.771C13.702 665.151 12.8074 665.346 11.8801 665.346C10.6401 665.346 9.68735 665.12 9.05098 664.675C8.40006 664.222 8.07278 663.466 8.07278 662.424Z" fill="white"/>
      <path d="M108.09 667.455V651.673H104.381V649.273H108.09V642.764H110.818V649.273H115V651.673H110.818V667.455H108.09Z" fill="white"/>
      <path d="M101.509 642.655V646.218H98.5635V642.655H101.509ZM98.6726 649.273H101.4V667.455H98.6726V649.273Z" fill="white"/>
      <path d="M93.9468 658.378V642H91.2195V652.218C89.7413 650.06 87.6322 648.982 84.8921 648.982C82.1521 648.982 79.9593 649.891 78.3102 651.709C76.7102 653.504 75.9102 655.722 75.9102 658.364C75.9102 661.006 76.7102 663.224 78.3102 665.019C79.7793 666.64 81.6375 667.537 83.8776 667.711C88.3667 667.328 92.1795 663.606 93.9468 658.378ZM78.6375 658.364C78.6375 656.4 79.2066 654.777 80.3466 653.491C81.5593 652.133 83.1339 651.455 85.0739 651.455C87.0376 651.455 88.5886 652.133 89.7286 653.491C90.8195 654.777 91.365 656.4 91.365 658.364C91.365 660.328 90.8195 661.951 89.7286 663.237C88.5886 664.595 87.0376 665.273 85.0739 665.273C83.1339 665.273 81.5593 664.595 80.3466 663.237C79.2066 661.951 78.6375 660.328 78.6375 658.364Z" fill="white"/>
      <path d="M70.2371 651.018C69.5826 650.34 68.8189 649.831 67.9462 649.491C67.1898 649.197 66.3043 649.031 65.2934 648.991C61.3861 649.827 58.1115 653.215 56.4551 657.839V667.455H59.1824V656.982C59.1824 655.358 59.7151 654.024 60.7824 652.982C61.8497 651.964 63.1461 651.455 64.6734 651.455C66.1771 651.455 67.4007 651.951 68.3462 652.946C69.2917 653.94 69.7644 655.273 69.7644 656.946V667.455H72.4917V656.873C72.4917 654.449 71.739 652.497 70.2371 651.018Z" fill="white"/>
      <path d="M44.3098 665.273C46.7589 665.273 48.5153 664.255 49.5826 662.218H52.5644C51.9335 663.868 50.9335 665.2 49.5644 666.218C48.1953 667.237 46.4316 667.746 44.2734 667.746C41.5333 667.746 39.3042 666.837 37.5824 665.018C35.9096 663.249 35.0732 661.031 35.0732 658.364C35.0732 655.673 35.8733 653.455 37.4733 651.709C39.1697 649.891 41.377 648.982 44.0916 648.982C46.8062 648.982 49.0135 649.891 50.7099 651.709C52.3099 653.455 53.1099 655.673 53.1099 658.364V659.455H37.8733C38.0678 661.127 38.7333 662.509 39.8733 663.6C41.037 664.715 42.5152 665.273 44.3098 665.273ZM44.0916 651.455C42.4188 651.455 41.0133 651.976 39.8733 653.018C38.806 654.013 38.1515 655.309 37.9097 656.909H50.2735C50.0317 655.309 49.3771 654.013 48.3098 653.018C47.1698 651.976 45.7643 651.455 44.0916 651.455Z" fill="white"/>
      <path d="M26.673 667.455V651.673H22.9639V649.273H26.673V642.764H29.4003V649.273H33.5822V651.673H29.4003V667.455H26.673Z" fill="white"/>
    </symbol>
    <symbol id="hamburger" viewBox="0 528 80 80">
      <rect x="16" y="584" width="49" height="9" fill="black"/>
      <path fill-rule="evenodd" clip-rule="evenodd" d="M16 562H20L23 567L26 562H38V565H33V567H36.5V569H33V571H45V562H49L52 567V562H58V570H62V562H65V568.5V569.5V572C65 573.105 64.1046 574 63 574H57C55.8954 574 55 573.105 55 572V574H52L48 569V574H45H27V569L23 574L19 569V574H16V562Z" fill="black"/>
      <rect x="16" y="543" width="49" height="9" fill="black"/>
    </symbol>
    <symbol id="instagram" viewBox="0 440 90 84">
      <path d="M5 460C5 448.954 13.9543 440 25 440H79C84.5228 440 89 444.477 89 450V484C89 506.091 71.0914 524 49 524H15C9.47715 524 5 519.523 5 514V460Z" fill="#691B93"/>
      <path d="M45.0063 461.507C51.6829 461.507 52.4769 461.532 55.1088 461.651C57.5469 461.764 58.8722 462.17 59.7537 462.514C60.9227 462.97 61.7542 463.508 62.6294 464.383C63.5046 465.258 64.0485 466.09 64.4986 467.259C64.8425 468.14 65.2488 469.466 65.3613 471.904C65.4801 474.542 65.5051 475.33 65.5051 482.006C65.5051 488.683 65.4801 489.477 65.3613 492.109C65.2488 494.547 64.8425 495.872 64.4986 496.754C64.0423 497.923 63.5046 498.754 62.6294 499.629C61.7542 500.505 60.9227 501.049 59.7537 501.499C58.8722 501.842 57.5469 502.249 55.1088 502.361C52.4706 502.48 51.6829 502.505 45.0063 502.505C38.3296 502.505 37.5356 502.48 34.9037 502.361C32.4656 502.249 31.1403 501.842 30.2588 501.499C29.0898 501.042 28.2583 500.505 27.3831 499.629C26.5079 498.754 25.964 497.923 25.5139 496.754C25.17 495.872 24.7637 494.547 24.6512 492.109C24.5324 489.471 24.5074 488.683 24.5074 482.006C24.5074 475.33 24.5324 474.536 24.6512 471.904C24.7637 469.466 25.17 468.14 25.5139 467.259C25.9702 466.09 26.5079 465.258 27.3831 464.383C28.2583 463.508 29.0898 462.964 30.2588 462.514C31.1403 462.17 32.4656 461.764 34.9037 461.651C37.5356 461.532 38.3296 461.507 45.0063 461.507ZM45.0063 457C38.2171 457 37.3606 457.031 34.6974 457.15C32.0343 457.269 30.2151 457.694 28.6272 458.313C26.983 458.95 25.5889 459.807 24.2011 461.195C22.807 462.589 21.9505 463.983 21.3128 465.627C20.6939 467.215 20.2688 469.034 20.15 471.697C20.0313 474.361 20 475.217 20 482.006C20 488.795 20.0313 489.652 20.15 492.315C20.2688 494.978 20.6939 496.797 21.3128 498.385C21.9505 500.03 22.807 501.424 24.1948 502.811C25.5826 504.199 26.9767 505.056 28.6209 505.693C30.2088 506.312 32.028 506.737 34.6912 506.856C37.3606 506.975 38.2108 507.006 45 507.006C51.7892 507.006 52.6457 506.975 55.3088 506.856C57.972 506.737 59.7912 506.312 61.3791 505.693C63.0233 505.056 64.4174 504.199 65.8052 502.811C67.1931 501.424 68.0495 500.03 68.6872 498.385C69.3061 496.797 69.7312 494.978 69.85 492.315C69.9687 489.646 70 488.795 70 482.006C70 475.217 69.9687 474.361 69.85 471.697C69.7312 469.034 69.3061 467.215 68.6872 465.627C68.0495 463.983 67.1931 462.589 65.8052 461.201C64.4236 459.807 63.0295 458.95 61.3853 458.313C59.7975 457.694 57.9782 457.269 55.3151 457.15C52.6519 457.031 51.7955 457 45.0063 457Z" fill="white"/>
      <path d="M45.0062 469.166C37.917 469.166 32.1655 474.917 32.1655 482.006C32.1655 489.096 37.917 494.847 45.0062 494.847C52.0955 494.847 57.847 489.096 57.847 482.006C57.847 474.917 52.0955 469.166 45.0062 469.166ZM45.0062 490.34C40.4051 490.34 36.6729 486.607 36.6729 482.006C36.6729 477.405 40.4051 473.673 45.0062 473.673C49.6074 473.673 53.3396 477.405 53.3396 482.006C53.3396 486.607 49.6074 490.34 45.0062 490.34Z" fill="white"/>
      <path d="M58.3533 471.66C60.0106 471.66 61.354 470.316 61.354 468.659C61.354 467.002 60.0106 465.658 58.3533 465.658C56.696 465.658 55.3525 467.002 55.3525 468.659C55.3525 470.316 56.696 471.66 58.3533 471.66Z" fill="white"/>
      <path d="M45.0063 461.507C51.6829 461.507 52.4769 461.532 55.1088 461.651C57.5469 461.764 58.8722 462.17 59.7537 462.514C60.9227 462.97 61.7542 463.508 62.6294 464.383C63.5046 465.258 64.0485 466.09 64.4986 467.259C64.8425 468.14 65.2488 469.466 65.3613 471.904C65.4801 474.542 65.5051 475.33 65.5051 482.006C65.5051 488.683 65.4801 489.477 65.3613 492.109C65.2488 494.547 64.8425 495.872 64.4986 496.754C64.0423 497.923 63.5046 498.754 62.6294 499.629C61.7542 500.505 60.9227 501.049 59.7537 501.499C58.8722 501.842 57.5469 502.249 55.1088 502.361C52.4706 502.48 51.6829 502.505 45.0063 502.505C38.3296 502.505 37.5356 502.48 34.9037 502.361C32.4656 502.249 31.1403 501.842 30.2588 501.499C29.0898 501.042 28.2583 500.505 27.3831 499.629C26.5079 498.754 25.964 497.923 25.5139 496.754C25.17 495.872 24.7637 494.547 24.6512 492.109C24.5324 489.471 24.5074 488.683 24.5074 482.006C24.5074 475.33 24.5324 474.536 24.6512 471.904C24.7637 469.466 25.17 468.14 25.5139 467.259C25.9702 466.09 26.5079 465.258 27.3831 464.383C28.2583 463.508 29.0898 462.964 30.2588 462.514C31.1403 462.17 32.4656 461.764 34.9037 461.651C37.5356 461.532 38.3296 461.507 45.0063 461.507ZM45.0063 457C38.2171 457 37.3606 457.031 34.6974 457.15C32.0343 457.269 30.2151 457.694 28.6272 458.313C26.983 458.95 25.5889 459.807 24.2011 461.195C22.807 462.589 21.9505 463.983 21.3128 465.627C20.6939 467.215 20.2688 469.034 20.15 471.697C20.0313 474.361 20 475.217 20 482.006C20 488.795 20.0313 489.652 20.15 492.315C20.2688 494.978 20.6939 496.797 21.3128 498.385C21.9505 500.03 22.807 501.424 24.1948 502.811C25.5826 504.199 26.9767 505.056 28.6209 505.693C30.2088 506.312 32.028 506.737 34.6912 506.856C37.3606 506.975 38.2108 507.006 45 507.006C51.7892 507.006 52.6457 506.975 55.3088 506.856C57.972 506.737 59.7912 506.312 61.3791 505.693C63.0233 505.056 64.4174 504.199 65.8052 502.811C67.1931 501.424 68.0495 500.03 68.6872 498.385C69.3061 496.797 69.7312 494.978 69.85 492.315C69.9687 489.646 70 488.795 70 482.006C70 475.217 69.9687 474.361 69.85 471.697C69.7312 469.034 69.3061 467.215 68.6872 465.627C68.0495 463.983 67.1931 462.589 65.8052 461.201C64.4236 459.807 63.0295 458.95 61.3853 458.313C59.7975 457.694 57.9782 457.269 55.3151 457.15C52.6519 457.031 51.7955 457 45.0063 457Z" fill="white"/>
      <path d="M45.0062 469.166C37.917 469.166 32.1655 474.917 32.1655 482.006C32.1655 489.096 37.917 494.847 45.0062 494.847C52.0955 494.847 57.847 489.096 57.847 482.006C57.847 474.917 52.0955 469.166 45.0062 469.166ZM45.0062 490.34C40.4051 490.34 36.6729 486.607 36.6729 482.006C36.6729 477.405 40.4051 473.673 45.0062 473.673C49.6074 473.673 53.3396 477.405 53.3396 482.006C53.3396 486.607 49.6074 490.34 45.0062 490.34Z" fill="white"/>
      <path d="M58.3533 471.66C60.0106 471.66 61.354 470.316 61.354 468.659C61.354 467.002 60.0106 465.658 58.3533 465.658C56.696 465.658 55.3525 467.002 55.3525 468.659C55.3525 470.316 56.696 471.66 58.3533 471.66Z" fill="white"/>
    </symbol>
    <symbol id="linkedin" viewBox="0 352 90 84">
      <path d="M5 372C5 360.954 13.9543 352 25 352H79C84.5228 352 89 356.477 89 362V396C89 418.091 71.0914 436 49 436H15C9.47715 436 5 431.523 5 426V372Z" fill="#691B93"/>
      <path d="M59.9605 374H28.0345C25.8048 374 24 375.81 24 378.044V410.42C24 412.655 25.8048 414.465 28.0345 414.465H59.9655C62.1952 414.465 64 412.655 64 410.42V378.044C63.995 375.81 62.1902 374 59.9605 374ZM36.8334 406.021H31.4541V388.708H36.8334V406.021ZM34.1087 386.583C32.4089 386.583 31.3141 385.379 31.3141 383.894C31.3141 382.374 32.4489 381.204 34.1787 381.204C35.9135 381.204 36.9734 382.374 37.0084 383.894C37.0084 385.384 35.9135 386.583 34.1087 386.583ZM56.4809 406.021H51.0966V396.427C51.0966 394.197 50.3167 392.673 48.372 392.673C46.8871 392.673 46.0023 393.698 45.6123 394.692C45.4723 395.047 45.4373 395.542 45.4373 396.037V406.021H40.053V394.232C40.053 392.073 39.983 390.268 39.913 388.708H44.5874L44.8374 391.118H44.9424C45.6523 389.983 47.3871 388.323 50.2867 388.323C53.8263 388.323 56.4809 390.693 56.4809 395.792V406.021Z" fill="white"/>
      <path d="M59.9605 374H28.0345C25.8048 374 24 375.81 24 378.044V410.42C24 412.655 25.8048 414.465 28.0345 414.465H59.9655C62.1952 414.465 64 412.655 64 410.42V378.044C63.995 375.81 62.1902 374 59.9605 374ZM36.8334 406.021H31.4541V388.708H36.8334V406.021ZM34.1087 386.583C32.4089 386.583 31.3141 385.379 31.3141 383.894C31.3141 382.374 32.4489 381.204 34.1787 381.204C35.9135 381.204 36.9734 382.374 37.0084 383.894C37.0084 385.384 35.9135 386.583 34.1087 386.583ZM56.4809 406.021H51.0966V396.427C51.0966 394.197 50.3167 392.673 48.372 392.673C46.8871 392.673 46.0023 393.698 45.6123 394.692C45.4723 395.047 45.4373 395.542 45.4373 396.037V406.021H40.053V394.232C40.053 392.073 39.983 390.268 39.913 388.708H44.5874L44.8374 391.118H44.9424C45.6523 389.983 47.3871 388.323 50.2867 388.323C53.8263 388.323 56.4809 390.693 56.4809 395.792V406.021Z" fill="white"/>
    </symbol>
    <symbol id="facebook" viewBox="0 264 90 84">
      <path d="M5 284C5 272.954 13.9543 264 25 264H79C84.5228 264 89 268.477 89 274V308C89 330.091 71.0914 348 49 348H15C9.47715 348 5 343.523 5 338V284Z" fill="#691B93"/>
      <path d="M56.9584 309.029L58.3954 299.688H49.3943V293.63C49.3943 291.076 50.6549 288.587 54.6852 288.587H58.7808V280.63C58.7808 280.63 55.0641 280 51.5106 280C44.0902 280 39.2435 284.472 39.2435 292.571V299.688H31V309.029H39.2435V331.61C40.8961 331.87 42.5879 332 44.3189 332C46.0499 332 47.7417 331.863 49.3943 331.61V309.029H56.9584Z" fill="white"/>
    </symbol>
    <symbol id="fb-m" viewBox="0 176 90 84">
      <path d="M5 196C5 184.954 13.9543 176 25 176H79C84.5228 176 89 180.477 89 186V220C89 242.091 71.0914 260 49 260H15C9.47715 260 5 255.523 5 250V196Z" fill="#691B93"/>
      <path fill-rule="evenodd" clip-rule="evenodd" d="M18 217.221C18 202.73 29.3523 192 44.0003 192C58.6484 192 70.0007 202.73 70.0007 217.221C70.0007 231.712 58.6484 242.442 44.0003 242.442C41.3689 242.442 38.8421 242.096 36.4723 241.442C36.0119 241.317 35.5254 241.354 35.0859 241.547L29.9277 243.823C28.578 244.414 27.0556 243.457 27.0086 241.981L26.8673 237.357C26.8464 236.786 26.59 236.258 26.1663 235.876C21.1075 231.351 18 224.801 18 217.221ZM36.0275 212.481L28.3896 224.597C27.6519 225.759 29.0854 227.072 30.1787 226.24L38.3816 220.014C38.9362 219.596 39.7 219.591 40.2597 220.009L46.3335 224.566C48.154 225.931 50.7593 225.45 51.973 223.525L59.6109 211.409C60.3485 210.247 58.9151 208.934 57.8217 209.766L49.6188 215.991C49.0643 216.41 48.3005 216.415 47.7407 215.997L41.667 211.44C39.8465 210.075 37.2412 210.556 36.0275 212.481Z" fill="white"/>
    </symbol>
    <symbol id="twitter" viewBox="0 88 90 84">
      <path d="M5 108C5 96.9543 13.9543 88 25 88H79C84.5228 88 89 92.4772 89 98V132C89 154.091 71.0914 172 49 172H15C9.47715 172 5 167.523 5 162V108Z" fill="#691B93"/>
      <path d="M35.3585 151.258C54.9795 151.258 65.7097 135.003 65.7097 120.907C65.7097 120.445 65.7032 119.984 65.6772 119.529C67.7569 118.021 69.5702 116.143 71 114.004C69.0892 114.856 67.029 115.428 64.8713 115.681C67.0745 114.362 68.7643 112.269 69.5637 109.78C67.5034 111.002 65.2222 111.892 62.7915 112.367C60.8418 110.3 58.0731 109 55.0055 109C49.1172 109 44.3338 113.777 44.3338 119.665C44.3338 120.504 44.4248 121.316 44.6133 122.096C35.7484 121.647 27.8844 117.403 22.6265 110.95C21.7102 112.523 21.1837 114.355 21.1837 116.312C21.1837 120.01 23.0685 123.279 25.9281 125.189C24.1799 125.137 22.5356 124.657 21.0992 123.857C21.0992 123.903 21.0992 123.948 21.0992 123.994C21.0992 129.16 24.7778 133.476 29.6587 134.451C28.7618 134.698 27.8194 134.828 26.8445 134.828C26.1556 134.828 25.4862 134.763 24.8363 134.633C26.1946 138.87 30.1331 141.957 34.7995 142.042C31.147 144.902 26.5456 146.611 21.5477 146.611C20.6898 146.611 19.8384 146.559 19 146.461C23.7249 149.49 29.3337 151.258 35.3585 151.258Z" fill="white"/>
    </symbol>
    <symbol id="email" viewBox="0 0 90 84">
      <path d="M5 20C5 8.9543 13.9543 0 25 0H79C84.5228 0 89 4.47715 89 10V44C89 66.0914 71.0914 84 49 84H15C9.47715 84 5 79.5229 5 74V20Z" fill="#691B93"/>
      <path d="M20.8051 25L44 45.4286L67.1949 25H20.8051ZM18 27.4762V55.875L33.5729 41.1919L18 27.4762ZM70 27.4762L54.4271 41.1919L70 55.875V27.4762ZM36.3586 43.6488L20.689 58.4286H67.311L51.6414 43.6488L45.2188 49.2976C44.8808 49.5915 44.4479 49.7534 44 49.7534C43.5521 49.7534 43.1193 49.5915 42.7812 49.2976L36.3586 43.6488Z" fill="white"/>
    </symbol>
  </defs>
  <!-- define view locations for each icon -->
  <view id="v-logo-lockup" viewBox="0 612 122 75" preserveAspectRatio="xMinYMid meet" />
  <view id="v-hamburger"   viewBox="0 528 80 80" preserveAspectRatio="xMinYMid meet" />
  <view id="v-instagram"   viewBox="0 440 90 84" preserveAspectRatio="xMinYMid meet" />
  <view id="v-linkedin"    viewBox="0 352 90 84" preserveAspectRatio="xMinYMid meet" />
  <view id="v-facebook"    viewBox="0 264 90 84" preserveAspectRatio="xMinYMid meet" />
  <view id="v-fb-m"        viewBox="0 176 90 84" preserveAspectRatio="xMinYMid meet" />
  <view id="v-twitter"     viewBox="0 88 90 84" preserveAspectRatio="xMinYMid meet" />
  <view id="v-email"       viewBox="0 0 90 84" preserveAspectRatio="xMinYMid meet" />

	<use href="#logo-lockup" x="0" y="612" width="122" height="75" id="ll"></use>
  <use href="#hamburger"   x="0" y="528" width="80" height="80" id="hb"></use>
  <use href="#instagram"   x="0" y="440" width="90" height="84" id="ig"></use>
  <use href="#linkedin"    x="0" y="352" width="90" height="84" id="li"></use>
	<use href="#facebook"    x="0" y="264" width="90" height="84" id="fb"></use>
  <use href="#fb-m"        x="0" y="176" width="90" height="84" id="mg"></use>
  <use href="#twitter"     x="0" y="88" width="90" height="84" id="tw"></use>
  <use href="#email"       x="0" y="0" width="90" height="84" id="em"></use>
</svg>
