<svg xmlns="http://www.w3.org/2000/svg">
  <defs>
    <symbol id="hamburger" viewBox="0 88 80 80">
      <rect x="16" y="144" width="49" height="9"/>
      <path fill-rule="evenodd" clip-rule="evenodd" d="M16 122H20L23 127L26 122H38V125H33V127H36.5V129H33V131H45V122H49L52 127V122H58V130H62V122H65V128.5V129.5V132C65 133.105 64.1046 134 63 134H57C55.8954 134 55 133.105 55 132V134H52L48 129V134H45H27V129L23 134L19 129V134H16V122Z"/>
      <rect x="16" y="103" width="49" height="9"/>
    </symbol>
    <symbol id="logo-lockup" viewBox="115 103 122 75">
      <path d="M235 140.5C235 161.044 218.48 177.729 198 177.997V178H126C120.477 178 116 173.523 116 168V113C116 107.477 120.477 103 126 103H198V103.003C218.48 103.271 235 119.956 235 140.5Z" fill="#691B93"/>
      <path d="M135.311 150.882V144.935C135.311 143.204 134.715 141.847 133.54 140.902C132.36 139.953 130.606 139.471 128.327 139.471C126.069 139.471 124.24 139.918 122.895 140.8C121.56 141.676 120.884 142.936 120.884 144.546C120.884 144.856 120.891 145.087 120.907 145.233H123.744V144.9C123.744 144.051 124.082 143.326 124.747 142.746C125.409 142.167 126.518 141.875 128.044 141.875C129.664 141.875 130.804 142.175 131.431 142.766C132.06 143.358 132.38 144.22 132.38 145.326V147.467H132.289C128.311 147.467 125.229 147.911 123.127 148.787C121.053 149.651 120 151.271 120 153.602C120 155.54 120.616 156.895 121.831 157.628C122.927 158.289 124.182 158.659 125.56 158.731C129.718 158.499 133.324 155.406 135.311 150.882ZM123.073 153.424C123.073 152.042 123.862 151.091 125.418 150.597C126.942 150.113 129.255 149.867 132.291 149.867H132.382V151.302C132.382 152.377 132.115 153.304 131.587 154.06C131.06 154.813 130.371 155.389 129.535 155.771C128.702 156.151 127.807 156.346 126.88 156.346C125.64 156.346 124.687 156.12 124.051 155.675C123.4 155.222 123.073 154.466 123.073 153.424Z" fill="white"/>
      <path d="M223.09 158.455V142.673H219.381V140.273H223.09V133.764H225.818V140.273H230V142.673H225.818V158.455H223.09Z" fill="white"/>
      <path d="M216.509 133.655V137.218H213.563V133.655H216.509ZM213.673 140.273H216.4V158.455H213.673V140.273Z" fill="white"/>
      <path d="M208.947 149.378V133H206.22V143.218C204.741 141.06 202.632 139.982 199.892 139.982C197.152 139.982 194.959 140.891 193.31 142.709C191.71 144.504 190.91 146.722 190.91 149.364C190.91 152.006 191.71 154.224 193.31 156.019C194.779 157.64 196.638 158.537 198.878 158.711C203.367 158.328 207.18 154.606 208.947 149.378ZM193.637 149.364C193.637 147.4 194.207 145.777 195.347 144.491C196.559 143.133 198.134 142.455 200.074 142.455C202.038 142.455 203.589 143.133 204.729 144.491C205.82 145.777 206.365 147.4 206.365 149.364C206.365 151.328 205.82 152.951 204.729 154.237C203.589 155.595 202.038 156.273 200.074 156.273C198.134 156.273 196.559 155.595 195.347 154.237C194.207 152.951 193.637 151.328 193.637 149.364Z" fill="white"/>
      <path d="M185.237 142.018C184.583 141.34 183.819 140.831 182.946 140.491C182.19 140.196 181.304 140.031 180.293 139.991C176.386 140.827 173.111 144.215 171.455 148.838V158.455H174.182V147.982C174.182 146.358 174.715 145.024 175.782 143.982C176.85 142.964 178.146 142.455 179.673 142.455C181.177 142.455 182.401 142.951 183.346 143.946C184.292 144.94 184.764 146.273 184.764 147.946V158.455H187.492V147.873C187.492 145.449 186.739 143.496 185.237 142.018Z" fill="white"/>
      <path d="M159.31 156.273C161.759 156.273 163.515 155.255 164.583 153.219H167.564C166.934 154.868 165.933 156.2 164.564 157.219C163.195 158.237 161.432 158.746 159.273 158.746C156.533 158.746 154.304 157.837 152.582 156.019C150.91 154.249 150.073 152.031 150.073 149.364C150.073 146.673 150.873 144.455 152.473 142.709C154.17 140.891 156.377 139.982 159.092 139.982C161.806 139.982 164.013 140.891 165.71 142.709C167.31 144.455 168.11 146.673 168.11 149.364V150.455H152.873C153.068 152.128 153.733 153.509 154.873 154.6C156.037 155.715 157.515 156.273 159.31 156.273ZM159.092 142.455C157.419 142.455 156.013 142.977 154.873 144.018C153.806 145.013 153.151 146.309 152.91 147.909H165.273C165.032 146.309 164.377 145.013 163.31 144.018C162.17 142.977 160.764 142.455 159.092 142.455Z" fill="white"/>
      <path d="M141.673 158.455V142.673H137.964V140.273H141.673V133.764H144.4V140.273H148.582V142.673H144.4V158.455H141.673Z" fill="white"/>
    </symbol>
    <symbol id="linkedin" viewBox="440 0 90 84">
      <path d="M445 20C445 8.9543 453.954 0 465 0H519C524.523 0 529 4.47715 529 10V44C529 66.0914 511.091 84 489 84H455C449.477 84 445 79.5228 445 74V20Z" fill="#691B93"/>
      <path d="M499.961 22H468.034C465.805 22 464 23.8098 464 26.0445V58.4204C464 60.6552 465.805 62.4649 468.034 62.4649H499.966C502.195 62.4649 504 60.6552 504 58.4204V26.0445C503.995 23.8098 502.19 22 499.961 22ZM476.833 54.021H471.454V36.7082H476.833V54.021ZM474.109 34.5834C472.409 34.5834 471.314 33.3786 471.314 31.8938C471.314 30.374 472.449 29.2041 474.179 29.2041C475.914 29.2041 476.973 30.374 477.008 31.8938C477.008 33.3836 475.914 34.5834 474.109 34.5834ZM496.481 54.021H491.097V44.4272C491.097 42.1975 490.317 40.6727 488.372 40.6727C486.887 40.6727 486.002 41.6975 485.612 42.6924C485.472 43.0474 485.437 43.5423 485.437 44.0372V54.021H480.053V42.2325C480.053 40.0727 479.983 38.268 479.913 36.7082H484.587L484.837 39.1179H484.942C485.652 37.983 487.387 36.3232 490.287 36.3232C493.826 36.3232 496.481 38.6929 496.481 43.7923V54.021Z" fill="white"/>
      <path d="M499.961 22H468.034C465.805 22 464 23.8098 464 26.0445V58.4204C464 60.6552 465.805 62.4649 468.034 62.4649H499.966C502.195 62.4649 504 60.6552 504 58.4204V26.0445C503.995 23.8098 502.19 22 499.961 22ZM476.833 54.021H471.454V36.7082H476.833V54.021ZM474.109 34.5834C472.409 34.5834 471.314 33.3786 471.314 31.8938C471.314 30.374 472.449 29.2041 474.179 29.2041C475.914 29.2041 476.973 30.374 477.008 31.8938C477.008 33.3836 475.914 34.5834 474.109 34.5834ZM496.481 54.021H491.097V44.4272C491.097 42.1975 490.317 40.6727 488.372 40.6727C486.887 40.6727 486.002 41.6975 485.612 42.6924C485.472 43.0474 485.437 43.5423 485.437 44.0372V54.021H480.053V42.2325C480.053 40.0727 479.983 38.268 479.913 36.7082H484.587L484.837 39.1179H484.942C485.652 37.983 487.387 36.3232 490.287 36.3232C493.826 36.3232 496.481 38.6929 496.481 43.7923V54.021Z" fill="white"/>
    </symbol>
    <symbol id="facebook" viewBox="12 103 90 84">
      <path d="M335 20C335 8.9543 343.954 0 355 0H409C414.523 0 419 4.47715 419 10V44C419 66.0914 401.091 84 379 84H345C339.477 84 335 79.5228 335 74V20Z" fill="#691B93"/>
      <path d="M386.958 45.029L388.395 35.6885H379.394V29.6305C379.394 27.076 380.655 24.5865 384.685 24.5865H388.781V16.6305C388.781 16.6305 385.064 16 381.511 16C374.09 16 369.243 20.472 369.243 28.571V35.6885H361V45.029H369.243V67.61C370.896 67.87 372.588 68 374.319 68C376.05 68 377.742 67.8635 379.394 67.61V45.029H386.958Z" fill="white"/>
    </symbol>
    <symbol id="fb-m" viewBox="12 103 90 84">
      <path d="M225 20C225 8.9543 233.954 0 245 0H299C304.523 0 309 4.47715 309 10V44C309 66.0914 291.091 84 269 84H235C229.477 84 225 79.5228 225 74V20Z" fill="#691B93"/>
      <path fill-rule="evenodd" clip-rule="evenodd" d="M238 41.2208C238 26.7297 249.352 16 264 16C278.648 16 290.001 26.7297 290.001 41.2208C290.001 55.712 278.648 66.4417 264 66.4417C261.369 66.4417 258.842 66.0964 256.472 65.4425C256.012 65.3169 255.525 65.3535 255.086 65.5471L249.928 67.8228C248.578 68.4139 247.056 67.4566 247.009 65.9813L246.867 61.3567C246.846 60.7865 246.59 60.2581 246.166 59.8762C241.107 55.351 238 48.8012 238 41.2208ZM256.027 36.4812L248.39 48.5972C247.652 49.7586 249.085 51.0717 250.179 50.2399L258.382 44.0145C258.936 43.5959 259.7 43.5907 260.26 44.0092L266.333 48.5658C268.154 49.9312 270.759 49.4499 271.973 47.5248L279.611 35.4087C280.349 34.2473 278.915 32.9342 277.822 33.766L269.619 39.9915C269.064 40.41 268.3 40.4152 267.741 39.9967L261.667 35.4401C259.846 34.0747 257.241 34.556 256.027 36.4812Z" fill="white"/>
    </symbol>
    <symbol id="twitter" viewBox="12 103 90 84">
      <path d="M115 20C115 8.9543 123.954 0 135 0H189C194.523 0 199 4.47715 199 10V44C199 66.0914 181.091 84 159 84H125C119.477 84 115 79.5228 115 74V20Z" fill="#691B93"/>
      <path d="M145.358 63.2577C164.98 63.2577 175.71 47.0032 175.71 32.9065C175.71 32.4451 175.703 31.9836 175.677 31.5287C177.757 30.0209 179.57 28.1426 181 26.0044C179.089 26.8558 177.029 27.4277 174.871 27.6812C177.074 26.3618 178.764 24.2691 179.564 21.7799C177.503 23.0017 175.222 23.8921 172.792 24.3666C170.842 22.2998 168.073 21 165.005 21C159.117 21 154.334 25.7769 154.334 31.6652C154.334 32.5036 154.425 33.316 154.613 34.0959C145.748 33.6474 137.884 29.4034 132.627 22.9498C131.71 24.5226 131.184 26.3553 131.184 28.3116C131.184 32.0096 133.068 35.2787 135.928 37.1895C134.18 37.1375 132.536 36.6565 131.099 35.8571C131.099 35.9026 131.099 35.9481 131.099 35.9936C131.099 41.1605 134.778 45.4759 139.659 46.4508C138.762 46.6978 137.819 46.8278 136.845 46.8278C136.156 46.8278 135.486 46.7628 134.836 46.6328C136.195 50.8703 140.133 53.9574 144.8 54.0419C141.147 56.9015 136.546 58.6108 131.548 58.6108C130.69 58.6108 129.838 58.5588 129 58.4613C133.725 61.4899 139.334 63.2577 145.358 63.2577Z" fill="white"/>
    </symbol>
    <symbol id="email" viewBox="12 103 90 84">
      <path d="M5 20C5 8.9543 13.9543 0 25 0H79C84.5228 0 89 4.47715 89 10V44C89 66.0914 71.0914 84 49 84H15C9.47715 84 5 79.5228 5 74V20Z" fill="#691B93"/>
      <path d="M20.8051 25L44 45.4286L67.1949 25H20.8051ZM18 27.4762V55.875L33.5729 41.1919L18 27.4762ZM70 27.4762L54.4271 41.1919L70 55.875V27.4762ZM36.3586 43.6488L20.689 58.4286H67.311L51.6414 43.6488L45.2188 49.2976C44.8808 49.5915 44.4479 49.7534 44 49.7534C43.5521 49.7534 43.1193 49.5915 42.7813 49.2976L36.3586 43.6488Z" fill="white"/>
    </symbol>
  </defs>
</svg>
