<svg width="946" height="181" viewBox="646 0 946 181" fill="none" xmlns="http://www.w3.org/2000/svg">
    <defs>
        <g id="hamburger" fill="pink">
            <rect x="16" y="144" width="49" height="9"/>
            <path fill-rule="evenodd" clip-rule="evenodd" d="M16 122H20L23 127L26 122H38V125H33V127H36.5V129H33V131H45V122H49L52 127V122H58V130H62V122H65V128.5V129.5V132C65 133.105 64.1046 134 63 134H57C55.8954 134 55 133.105 55 132V134H52L48 129V134H45H27V129L23 134L19 129V134H16V122Z"/>
            <rect x="16" y="103" width="49" height="9"/>
        </g>
        <g id="sensor-shape">
            <path d="M362 143.5C362 164.044 345.48 180.729 325 180.997V181H253C247.477 181 243 176.523 243 171V116C243 110.477 247.477 106 253 106H325V106.003C345.48 106.271 362 122.956 362 143.5Z" fill="red"/>
        </g>
        <g id="logo">
            <path d="M687.758 48.7694V32.5493C687.758 27.8285 686.131 24.1293 682.928 21.5507C679.71 18.9623 674.924 17.6482 668.711 17.6482C662.552 17.6482 657.564 18.868 653.894 21.273C650.255 23.6632 648.41 27.0996 648.41 31.4881C648.41 32.336 648.43 32.9658 648.474 33.3625H656.21V32.455C656.21 30.1393 657.132 28.1608 658.947 26.5789C660.752 25.002 663.777 24.2037 667.938 24.2037C672.356 24.2037 675.465 25.0219 677.176 26.6335C678.891 28.25 679.764 30.6005 679.764 33.6154V39.4568H679.516C668.666 39.4568 660.261 40.6668 654.529 43.0569C648.871 45.4123 646 49.8305 646 56.1877C646 61.4737 647.681 65.168 650.993 67.1664C653.984 68.9713 657.405 69.978 661.164 70.1763C672.505 69.5416 682.338 61.1068 687.758 48.7694ZM654.38 55.7017C654.38 51.9331 656.532 49.3396 660.777 47.9908C664.933 46.6718 671.24 46.0024 679.521 46.0024H679.769V49.9148C679.769 52.8455 679.04 55.3744 677.602 57.4373C676.164 59.4902 674.285 61.0621 672.004 62.1035C669.733 63.1398 667.293 63.6704 664.764 63.6704C661.382 63.6704 658.784 63.0555 657.048 61.8407C655.273 60.6059 654.38 58.5431 654.38 55.7017Z"/>
            <path d="M927.157 69.4227V26.3807H917.041V19.8351H927.157V2.08276H934.595V19.8351H946V26.3807H934.595V69.4227H927.157Z"/>
            <path d="M909.206 1.78516V11.5043H901.173V1.78516H909.206ZM901.47 19.835H908.909V69.4226H901.47V19.835Z"/>
            <path d="M888.582 44.6685V0H881.144V27.8682C877.113 21.9822 871.361 19.0416 863.888 19.0416C856.415 19.0416 850.435 21.521 845.937 26.4798C841.573 31.3741 839.392 37.4238 839.392 44.6288C839.392 51.8339 841.573 57.8836 845.937 62.7779C849.944 67.2011 855.012 69.6458 861.121 70.1218C873.364 69.0755 883.763 58.9249 888.582 44.6685ZM846.83 44.6288C846.83 39.2734 848.382 34.8452 851.491 31.3394C854.798 27.6352 859.093 25.7855 864.384 25.7855C869.739 25.7855 873.969 27.6352 877.078 31.3394C880.053 34.8452 881.541 39.2734 881.541 44.6288C881.541 49.9843 880.053 54.4125 877.078 57.9183C873.969 61.6225 869.739 63.4721 864.384 63.4721C859.093 63.4721 854.798 61.6225 851.491 57.9183C848.382 54.4125 846.83 49.9843 846.83 44.6288Z"/>
            <path d="M823.92 24.5954C822.135 22.7458 820.053 21.3574 817.672 20.4301C815.61 19.6267 813.195 19.1755 810.438 19.0664C799.781 21.3474 790.85 30.5856 786.333 43.1957V69.4226H793.771V40.8602C793.771 36.432 795.224 32.7923 798.135 29.9509C801.046 27.174 804.581 25.7855 808.747 25.7855C812.848 25.7855 816.185 27.1393 818.763 29.8517C821.342 32.5641 822.631 36.1989 822.631 40.761V69.4226H830.069V40.5626C830.069 33.9526 828.016 28.6269 823.92 24.5954Z"/>
            <path d="M753.209 63.4722C759.888 63.4722 764.678 60.6953 767.589 55.1415H775.721C774.001 59.6391 771.273 63.2739 767.539 66.0508C763.805 68.8277 758.995 70.2161 753.109 70.2161C745.637 70.2161 739.557 67.7368 734.861 62.778C730.299 57.9531 728.018 51.9034 728.018 44.6289C728.018 37.29 730.2 31.2403 734.564 26.4799C739.19 21.5211 745.21 19.0417 752.614 19.0417C760.017 19.0417 766.037 21.5211 770.663 26.4799C775.027 31.2403 777.209 37.29 777.209 44.6289V47.6042H735.655C736.185 52.1663 738 55.9349 741.109 58.9102C744.283 61.9499 748.314 63.4722 753.209 63.4722ZM752.614 25.7857C748.051 25.7857 744.218 27.2088 741.109 30.0502C738.198 32.7626 736.413 36.2982 735.754 40.6619H769.473C768.814 36.2982 767.029 32.7626 764.118 30.0502C761.009 27.2088 757.176 25.7857 752.614 25.7857Z"/>
            <path d="M705.108 69.4227V26.3807H694.992V19.8351H705.108V2.08276H712.546V19.8351H723.951V26.3807H712.546V69.4227H705.108Z"/>    
        </g>
        <g id="social-shape">
            <path d="M504 20C504 8.9543 512.954 0 524 0H578C583.523 0 588 4.47715 588 10V44C588 66.0914 570.091 84 548 84H514C508.477 84 504 79.5228 504 74V20Z" fill="yellow"/>
        </g>
        <g id="facebook"> 
            <path d="M444.958 29.029L446.395 19.6885H437.394V13.6305C437.394 11.076 438.655 8.5865 442.685 8.5865H446.781V0.6305C446.781 0.6305 443.064 0 439.511 0C432.09 0 427.243 4.472 427.243 12.571V19.6885H419V29.029H427.243V51.61C428.896 51.87 430.588 52 432.319 52C434.05 52 435.742 51.8635 437.394 51.61V29.029H444.958Z" fill="green"/>
        </g>
        <g id="fb-m" fill="blue">
            <path fill-rule="evenodd" clip-rule="evenodd" d="M277 25.2208C277 10.7297 288.352 0 303 0C317.648 0 329.001 10.7297 329.001 25.2208C329.001 39.712 317.648 50.4417 303 50.4417C300.369 50.4417 297.842 50.0964 295.472 49.4425C295.012 49.3169 294.525 49.3535 294.086 49.5471L288.928 51.8228C287.578 52.4139 286.056 51.4566 286.009 49.9813L285.867 45.3567C285.846 44.7865 285.59 44.2581 285.166 43.8762C280.107 39.351 277 32.8012 277 25.2208ZM295.027 20.4812L287.39 32.5972C286.652 33.7586 288.085 35.0717 289.179 34.2399L297.382 28.0145C297.936 27.5959 298.7 27.5907 299.26 28.0092L305.333 32.5658C307.154 33.9312 309.759 33.4499 310.973 31.5248L318.611 19.4087C319.349 18.2473 317.915 16.9342 316.822 17.766L308.619 23.9915C308.064 24.41 307.3 24.4152 306.741 23.9967L300.667 19.4401C298.846 18.0747 296.241 18.556 295.027 20.4812Z"/>
        </g>
        <g id="twitter">
            <path d="M151.358 42.2577C170.98 42.2577 181.71 26.0032 181.71 11.9065C181.71 11.4451 181.703 10.9836 181.677 10.5287C183.757 9.02087 185.57 7.14261 187 5.00437C185.089 5.85577 183.029 6.4277 180.871 6.68117C183.074 5.36183 184.764 3.26909 185.564 0.779903C183.503 2.00175 181.222 2.89214 178.792 3.36658C176.842 1.29984 174.073 0 171.005 0C165.117 0 160.334 4.7769 160.334 10.6652C160.334 11.5036 160.425 12.316 160.613 13.0959C151.748 12.6474 143.884 8.40345 138.627 1.94976C137.71 3.52256 137.184 5.35533 137.184 7.31159C137.184 11.0096 139.068 14.2787 141.928 16.1895C140.18 16.1375 138.536 15.6565 137.099 14.8571C137.099 14.9026 137.099 14.9481 137.099 14.9936C137.099 20.1605 140.778 24.4759 145.659 25.4508C144.762 25.6978 143.819 25.8278 142.845 25.8278C142.156 25.8278 141.486 25.7628 140.836 25.6328C142.195 29.8703 146.133 32.9574 150.8 33.0419C147.147 35.9015 142.546 37.6108 137.548 37.6108C136.69 37.6108 135.838 37.5588 135 37.4613C139.725 40.4899 145.334 42.2577 151.358 42.2577Z" fill="orange"/>
        </g>
        <g id="email">
            <path d="M16.8051 0L40 20.4286L63.1949 0H16.8051ZM14 2.47619V30.875L29.5729 16.1919L14 2.47619ZM66 2.47619L50.4271 16.1919L66 30.875V2.47619ZM32.3586 18.6488L16.689 33.4286H63.311L47.6414 18.6488L41.2188 24.2976C40.8808 24.5915 40.4479 24.7534 40 24.7534C39.5521 24.7534 39.1193 24.5915 38.7813 24.2976L32.3586 18.6488Z" fill="brown"/>
        </g>
    </defs>
</svg>