<svg width="50" height="40" viewBox="0 0 50 40" fill="none" xmlns="http://www.w3.org/2000/svg">
<circle cx="20" cy="20" r="20" fill="#691B93"/>
<path d="M23.6932 28.3049C23.3963 29.9379 23.2707 31.5594 23.3049 33.1467C23.2707 33.0554 23.2364 32.964 23.2021 32.8727C22.2315 30.3946 20.6328 28.1907 18.5544 26.5234C16.636 24.9818 14.3292 23.8856 11.737 23.4174C11.6343 23.3945 11.5315 23.3831 11.4287 23.3603C12.1938 21.9328 12.8219 20.414 13.3015 18.8153C15.7567 19.7631 17.8807 21.2819 19.5137 23.189C23.5447 12.2263 34.9984 5.39749 46.8975 7.53293C47.7996 7.6928 48.6675 7.89835 49.524 8.14958C37.191 7.30454 25.9314 15.8577 23.6932 28.3049Z" fill="white"/>
</svg>
